<?xml version="1.0" standalone="no"?>
<!DOCTYPE svg PUBLIC "-//W3C//DTD SVG 1.1//EN" "http://www.w3.org/Graphics/SVG/1.1/DTD/svg11.dtd">
<svg width="398mm" height="124mm" viewBox="-199 -74 398 124" xmlns="http://www.w3.org/2000/svg" version="1.1">
<title>OpenSCAD Model</title>
<path d="
M -38.8889,-66 L -27.7778,-66 L -27.7778,-62 L -16.6667,-62 L -16.6667,-66 L -5.55554,-66
 L -5.55554,-62 L 5.55554,-62 L 5.55554,-66 L 16.6667,-66 L 16.6667,-62 L 27.7778,-62
 L 27.7778,-66 L 38.8889,-66 L 38.8889,-62 L 50,-62 L 50,-71 L 49.9763,-71.376
 L 49.9057,-71.7461 L 49.7893,-72.1044 L 49.6289,-72.4453 L 49.427,-72.7634 L 49.1869,-73.0536 L 48.9123,-73.3115
 L 48.6075,-73.533 L 48.2773,-73.7145 L 47.927,-73.8532 L 47.5621,-73.9469 L 47.1884,-73.9941 L -47.1884,-73.9941
 L -47.5621,-73.9469 L -47.927,-73.8532 L -48.2773,-73.7145 L -48.6075,-73.533 L -48.9123,-73.3115 L -49.1869,-73.0536
 L -49.427,-72.7634 L -49.6289,-72.4453 L -49.7893,-72.1044 L -49.9057,-71.7461 L -49.9763,-71.376 L -50,-71
 L -50,-62 L -38.8889,-62 z
M 47.5621,49.9468 L 47.927,49.8531 L 48.2773,49.7145 L 48.6075,49.533 L 48.9123,49.3115 L 49.1869,49.0536
 L 49.427,48.7633 L 49.6289,48.4452 L 49.7893,48.1044 L 49.9057,47.746 L 49.9763,47.376 L 50,47
 L 50,31.4222 L 54,31.4222 L 54,22.4444 L 50,22.4444 L 50,13.4667 L 54,13.4667
 L 54,4.48888 L 50,4.48888 L 50,-4.48888 L 54,-4.48888 L 54,-13.4667 L 50,-13.4667
 L 50,-22.4444 L 54,-22.4444 L 54,-31.4222 L 50,-31.4222 L 50,-50 L 38.8889,-50
 L 38.8889,-54 L 27.7778,-54 L 27.7778,-50 L 16.6667,-50 L 16.6667,-54 L 5.55554,-54
 L 5.55554,-50 L -5.55554,-50 L -5.55554,-54 L -16.6667,-54 L -16.6667,-50 L -27.7778,-50
 L -27.7778,-54 L -38.8889,-54 L -38.8889,-50 L -50,-50 L -50,-31.4222 L -54,-31.4222
 L -54,-22.4444 L -50,-22.4444 L -50,-13.4667 L -54,-13.4667 L -54,-4.48888 L -50,-4.48888
 L -50,4.48888 L -54,4.48888 L -54,13.4667 L -50,13.4667 L -50,22.4444 L -54,22.4444
 L -54,31.4222 L -50,31.4222 L -50,47 L -49.9763,47.376 L -49.9057,47.746 L -49.7893,48.1044
 L -49.6289,48.4452 L -49.427,48.7633 L -49.1869,49.0536 L -48.9123,49.3115 L -48.6075,49.533 L -48.2773,49.7145
 L -47.927,49.8531 L -47.5621,49.9468 L -47.1884,49.9941 L 47.1884,49.9941 z
M 82.0767,49.6897 L 83.2777,49.5846 L 89.9008,48.7126 L 91.0881,48.5033 L 97.6101,47.0574 L 98.7746,46.7454
 L 105.146,44.7366 L 106.279,44.3242 L 112.45,41.7678 L 113.543,41.2583 L 114.563,40.6159 L 115.495,39.8506
 L 116.323,38.9747 L 117.035,38.0018 L 117.62,36.9474 L 118.067,35.8281 L 118.371,34.6614 L 118.526,33.4659
 L 118.531,32.2603 L 118.384,31.0637 L 118.088,29.895 L 117.648,28.7725 L 83.7258,-43.934 L 83.2125,-45.0248
 L 82.5665,-46.0427 L 81.7981,-46.9716 L 80.9193,-47.7969 L 79.9439,-48.5055 L 78.8875,-49.0863 L 77.7665,-49.5301
 L 76.5988,-49.8299 L 75.4028,-49.981 L 74.1972,-49.981 L 73.0011,-49.8299 L 71.8334,-49.5301 L 70.7125,-49.0863
 L 69.6561,-48.5055 L 68.6807,-47.7969 L 67.8019,-46.9716 L 67.0334,-46.0427 L 66.3875,-45.0248 L 65.8741,-43.934
 L 65.5016,-42.7874 L 65.2757,-41.6032 L 65.2,-40.4 L 61.2,-40.4 L 61.2,-31.4222 L 65.2,-31.4222
 L 65.2,-22.4444 L 61.2,-22.4444 L 61.2,-13.4667 L 65.2,-13.4667 L 65.2,-4.48888 L 61.2,-4.48888
 L 61.2,4.48888 L 65.2,4.48888 L 65.2,13.4667 L 61.2,13.4667 L 61.2,22.4444 L 65.2,22.4444
 L 65.2,31.4222 L 61.2,31.4222 L 61.2,40.4 L 65.2,40.4 L 65.2757,41.6032 L 65.5016,42.7874
 L 65.8741,43.934 L 66.3875,45.0248 L 67.0334,46.0427 L 67.8019,46.9716 L 68.6807,47.7969 L 69.6561,48.5055
 L 70.7125,49.0863 L 71.8334,49.5301 L 73.0011,49.8299 L 74.1972,49.981 L 75.4028,49.981 z
M 74.5991,-37.2063 L 74.2004,-37.2567 L 73.8111,-37.3566 L 73.4375,-37.5046 L 73.0853,-37.6982 L 72.7602,-37.9344
 L 72.4673,-38.2095 L 72.2111,-38.5191 L 71.9958,-38.8584 L 71.8247,-39.222 L 71.7005,-39.6042 L 71.6252,-39.9989
 L 71.6,-40.4 L 71.6252,-40.8011 L 71.7005,-41.1958 L 71.8247,-41.578 L 71.9958,-41.9416 L 72.2111,-42.2809
 L 72.4673,-42.5905 L 72.7602,-42.8656 L 73.0853,-43.1018 L 73.4375,-43.2954 L 73.8111,-43.4434 L 74.2004,-43.5433
 L 74.5991,-43.5937 L 75.0009,-43.5937 L 75.3996,-43.5433 L 75.7888,-43.4434 L 76.1625,-43.2954 L 76.5146,-43.1018
 L 76.8397,-42.8656 L 77.1327,-42.5905 L 77.3888,-42.2809 L 77.6042,-41.9416 L 77.7753,-41.578 L 77.8994,-41.1958
 L 77.9747,-40.8011 L 78,-40.4 L 77.9747,-39.9989 L 77.8994,-39.6042 L 77.7753,-39.222 L 77.6042,-38.8584
 L 77.3888,-38.5191 L 77.1327,-38.2095 L 76.8397,-37.9344 L 76.5146,-37.6982 L 76.1625,-37.5046 L 75.7888,-37.3566
 L 75.3996,-37.2567 L 75.0009,-37.2063 z
M 108.535,36.003 L 108.141,35.9263 L 107.759,35.8008 L 107.396,35.6284 L 107.058,35.4119 L 106.749,35.1547
 L 106.475,34.8608 L 106.24,34.5349 L 106.047,34.182 L 105.901,33.8079 L 105.802,33.4183 L 105.753,33.0194
 L 105.755,32.6176 L 105.806,32.2191 L 105.908,31.8302 L 106.057,31.4571 L 106.252,31.1056 L 106.489,30.7813
 L 106.765,30.4893 L 107.076,30.2343 L 107.416,30.0201 L 107.78,29.8503 L 108.163,29.7274 L 108.558,29.6535
 L 108.959,29.6297 L 109.36,29.6563 L 109.754,29.733 L 110.136,29.8585 L 110.499,30.0309 L 110.837,30.2474
 L 111.146,30.5046 L 111.42,30.7985 L 111.655,31.1245 L 111.848,31.4773 L 111.994,31.8514 L 112.093,32.241
 L 112.142,32.6399 L 112.141,33.0417 L 112.089,33.4402 L 111.987,33.8291 L 111.838,34.2022 L 111.643,34.5537
 L 111.406,34.878 L 111.13,35.17 L 110.819,35.4251 L 110.479,35.6392 L 110.115,35.809 L 109.733,35.9319
 L 109.338,36.0058 L 108.936,36.0296 z
M 97.9672,40.0367 L 97.5738,39.9545 L 97.1939,39.8237 L 96.8333,39.6463 L 96.4978,39.425 L 96.1927,39.1635
 L 95.9227,38.8658 L 95.6922,38.5366 L 95.5048,38.1812 L 95.3634,37.805 L 95.2703,37.4141 L 95.2269,37.0146
 L 95.2339,36.6128 L 95.2912,36.215 L 95.3979,35.8276 L 95.5524,35.4566 L 95.7521,35.1079 L 95.9939,34.7869
 L 96.2741,34.4988 L 96.5882,34.2481 L 96.9312,34.0387 L 97.2977,33.874 L 97.682,33.7565 L 98.078,33.6881
 L 98.4795,33.6699 L 98.88,33.7021 L 99.2734,33.7843 L 99.6534,33.9151 L 100.014,34.0926 L 100.349,34.3138
 L 100.655,34.5753 L 100.924,34.873 L 101.155,35.2022 L 101.342,35.5576 L 101.484,35.9338 L 101.577,36.3247
 L 101.62,36.7242 L 101.613,37.126 L 101.556,37.5238 L 101.449,37.9112 L 101.295,38.2822 L 101.095,38.631
 L 100.853,38.9519 L 100.573,39.24 L 100.259,39.4907 L 99.916,39.7001 L 99.5495,39.8648 L 99.1652,39.9823
 L 98.7692,40.0507 L 98.3678,40.0689 z
M 86.9393,42.5658 L 86.5471,42.4781 L 86.169,42.342 L 85.811,42.1596 L 85.4786,41.9337 L 85.1771,41.6679
 L 84.9114,41.3665 L 84.6855,41.0341 L 84.5031,40.6761 L 84.3669,40.298 L 84.2793,39.9058 L 84.2415,39.5057
 L 84.2541,39.104 L 84.317,38.7071 L 84.4291,38.3212 L 84.5887,37.9524 L 84.7932,37.6065 L 85.0395,37.289
 L 85.3237,37.0049 L 85.6412,36.7585 L 85.9871,36.554 L 86.3559,36.3944 L 86.7418,36.2823 L 87.1387,36.2194
 L 87.5404,36.2068 L 87.9405,36.2446 L 88.3327,36.3323 L 88.7108,36.4684 L 89.0688,36.6508 L 89.4012,36.8767
 L 89.7026,37.1425 L 89.9684,37.4439 L 90.1943,37.7763 L 90.3767,38.1343 L 90.5128,38.5124 L 90.6005,38.9046
 L 90.6383,39.3047 L 90.6257,39.7063 L 90.5628,40.1033 L 90.4507,40.4892 L 90.2911,40.858 L 90.0865,41.2039
 L 89.8402,41.5214 L 89.5561,41.8056 L 89.2386,42.0519 L 88.8927,42.2564 L 88.5238,42.416 L 88.1379,42.5281
 L 87.741,42.591 L 87.3394,42.6036 z
M -73.0011,49.8299 L -71.8334,49.5301 L -70.7125,49.0863 L -69.6561,48.5055 L -68.6807,47.7969 L -67.8019,46.9716
 L -67.0334,46.0427 L -66.3875,45.0248 L -65.8741,43.934 L -65.5016,42.7874 L -65.2757,41.6032 L -65.2,40.4
 L -61.2,40.4 L -61.2,31.4222 L -65.2,31.4222 L -65.2,22.4444 L -61.2,22.4444 L -61.2,13.4667
 L -65.2,13.4667 L -65.2,4.48888 L -61.2,4.48888 L -61.2,-4.48888 L -65.2,-4.48888 L -65.2,-13.4667
 L -61.2,-13.4667 L -61.2,-22.4444 L -65.2,-22.4444 L -65.2,-31.4222 L -61.2,-31.4222 L -61.2,-40.4
 L -65.2,-40.4 L -65.2757,-41.6032 L -65.5016,-42.7874 L -65.8741,-43.934 L -66.3875,-45.0248 L -67.0334,-46.0427
 L -67.8019,-46.9716 L -68.6807,-47.7969 L -69.6561,-48.5055 L -70.7125,-49.0863 L -71.8334,-49.5301 L -73.0011,-49.8299
 L -74.1972,-49.981 L -75.4028,-49.981 L -76.5988,-49.8299 L -77.7665,-49.5301 L -78.8875,-49.0863 L -79.9439,-48.5055
 L -80.9193,-47.7969 L -81.7981,-46.9716 L -82.5665,-46.0427 L -83.2125,-45.0248 L -83.7258,-43.934 L -117.648,28.7725
 L -118.088,29.895 L -118.384,31.0637 L -118.531,32.2603 L -118.526,33.4659 L -118.371,34.6614 L -118.067,35.8281
 L -117.62,36.9474 L -117.035,38.0018 L -116.323,38.9747 L -115.495,39.8506 L -114.563,40.6159 L -113.543,41.2583
 L -112.45,41.7678 L -106.279,44.3242 L -105.146,44.7366 L -98.7746,46.7454 L -97.6101,47.0574 L -91.0881,48.5033
 L -89.9008,48.7126 L -83.2777,49.5846 L -82.0767,49.6897 L -75.4028,49.981 L -74.1972,49.981 z
M -75.0009,-37.2063 L -75.3996,-37.2567 L -75.7888,-37.3566 L -76.1625,-37.5046 L -76.5146,-37.6982 L -76.8397,-37.9344
 L -77.1327,-38.2095 L -77.3888,-38.5191 L -77.6042,-38.8584 L -77.7753,-39.222 L -77.8994,-39.6042 L -77.9747,-39.9989
 L -78,-40.4 L -77.9747,-40.8011 L -77.8994,-41.1958 L -77.7753,-41.578 L -77.6042,-41.9416 L -77.3888,-42.2809
 L -77.1327,-42.5905 L -76.8397,-42.8656 L -76.5146,-43.1018 L -76.1625,-43.2954 L -75.7888,-43.4434 L -75.3996,-43.5433
 L -75.0009,-43.5937 L -74.5991,-43.5937 L -74.2004,-43.5433 L -73.8111,-43.4434 L -73.4375,-43.2954 L -73.0853,-43.1018
 L -72.7602,-42.8656 L -72.4673,-42.5905 L -72.2111,-42.2809 L -71.9958,-41.9416 L -71.8247,-41.578 L -71.7005,-41.1958
 L -71.6252,-40.8011 L -71.6,-40.4 L -71.6252,-39.9989 L -71.7005,-39.6042 L -71.8247,-39.222 L -71.9958,-38.8584
 L -72.2111,-38.5191 L -72.4673,-38.2095 L -72.7602,-37.9344 L -73.0853,-37.6982 L -73.4375,-37.5046 L -73.8111,-37.3566
 L -74.2004,-37.2567 L -74.5991,-37.2063 z
M -109.338,36.0058 L -109.733,35.9319 L -110.115,35.809 L -110.479,35.6392 L -110.819,35.4251 L -111.13,35.17
 L -111.406,34.878 L -111.643,34.5537 L -111.838,34.2022 L -111.987,33.8291 L -112.089,33.4402 L -112.141,33.0417
 L -112.142,32.6399 L -112.093,32.241 L -111.994,31.8514 L -111.848,31.4773 L -111.655,31.1245 L -111.42,30.7985
 L -111.146,30.5046 L -110.837,30.2474 L -110.499,30.0309 L -110.136,29.8585 L -109.754,29.733 L -109.36,29.6563
 L -108.959,29.6297 L -108.558,29.6535 L -108.163,29.7274 L -107.78,29.8503 L -107.416,30.0201 L -107.076,30.2343
 L -106.765,30.4893 L -106.489,30.7813 L -106.252,31.1056 L -106.057,31.4571 L -105.908,31.8302 L -105.806,32.2191
 L -105.755,32.6176 L -105.753,33.0194 L -105.802,33.4183 L -105.901,33.8079 L -106.047,34.182 L -106.24,34.5349
 L -106.475,34.8608 L -106.749,35.1547 L -107.058,35.4119 L -107.396,35.6284 L -107.759,35.8008 L -108.141,35.9263
 L -108.535,36.003 L -108.936,36.0296 z
M -98.7692,40.0507 L -99.1652,39.9823 L -99.5495,39.8648 L -99.916,39.7001 L -100.259,39.4907 L -100.573,39.24
 L -100.853,38.9519 L -101.095,38.631 L -101.295,38.2822 L -101.449,37.9112 L -101.556,37.5238 L -101.613,37.126
 L -101.62,36.7242 L -101.577,36.3247 L -101.484,35.9338 L -101.342,35.5576 L -101.155,35.2022 L -100.924,34.873
 L -100.655,34.5753 L -100.349,34.3138 L -100.014,34.0926 L -99.6534,33.9151 L -99.2734,33.7843 L -98.88,33.7021
 L -98.4795,33.6699 L -98.078,33.6881 L -97.682,33.7565 L -97.2977,33.874 L -96.9312,34.0387 L -96.5882,34.2481
 L -96.2741,34.4988 L -95.9939,34.7869 L -95.7521,35.1079 L -95.5524,35.4566 L -95.3979,35.8276 L -95.2912,36.215
 L -95.2339,36.6128 L -95.2269,37.0146 L -95.2703,37.4141 L -95.3634,37.805 L -95.5048,38.1812 L -95.6922,38.5366
 L -95.9227,38.8658 L -96.1927,39.1635 L -96.4978,39.425 L -96.8333,39.6463 L -97.1939,39.8237 L -97.5738,39.9545
 L -97.9672,40.0367 L -98.3678,40.0689 z
M -87.741,42.591 L -88.1379,42.5281 L -88.5238,42.416 L -88.8927,42.2564 L -89.2386,42.0519 L -89.5561,41.8056
 L -89.8402,41.5214 L -90.0865,41.2039 L -90.2911,40.858 L -90.4507,40.4892 L -90.5628,40.1033 L -90.6257,39.7063
 L -90.6383,39.3047 L -90.6005,38.9046 L -90.5128,38.5124 L -90.3767,38.1343 L -90.1943,37.7763 L -89.9684,37.4439
 L -89.7026,37.1425 L -89.4012,36.8767 L -89.0688,36.6508 L -88.7108,36.4684 L -88.3327,36.3323 L -87.9405,36.2446
 L -87.5404,36.2068 L -87.1387,36.2194 L -86.7418,36.2823 L -86.3559,36.3944 L -85.9871,36.554 L -85.6412,36.7585
 L -85.3237,37.0049 L -85.0395,37.289 L -84.7932,37.6065 L -84.5887,37.9524 L -84.4291,38.3212 L -84.317,38.7071
 L -84.2541,39.104 L -84.2415,39.5057 L -84.2793,39.9058 L -84.3669,40.298 L -84.5031,40.6761 L -84.6855,41.0341
 L -84.9114,41.3665 L -85.1771,41.6679 L -85.4786,41.9337 L -85.811,42.1596 L -86.169,42.342 L -86.5471,42.4781
 L -86.9393,42.5658 L -87.3394,42.6036 z
M 162.077,49.6897 L 163.278,49.5846 L 169.901,48.7126 L 171.088,48.5033 L 177.61,47.0574 L 178.775,46.7454
 L 185.146,44.7366 L 186.279,44.3242 L 192.45,41.7678 L 193.543,41.2583 L 194.563,40.6159 L 195.495,39.8506
 L 196.323,38.9747 L 197.035,38.0018 L 197.62,36.9474 L 198.067,35.8281 L 198.371,34.6614 L 198.526,33.4659
 L 198.531,32.2603 L 198.384,31.0637 L 198.088,29.895 L 197.648,28.7725 L 163.726,-43.934 L 163.213,-45.0248
 L 162.567,-46.0427 L 161.798,-46.9716 L 160.919,-47.7969 L 159.944,-48.5055 L 158.887,-49.0863 L 157.767,-49.5301
 L 156.599,-49.8299 L 155.403,-49.981 L 154.197,-49.981 L 153.001,-49.8299 L 151.833,-49.5301 L 150.713,-49.0863
 L 149.656,-48.5055 L 148.681,-47.7969 L 147.802,-46.9716 L 147.033,-46.0427 L 146.387,-45.0248 L 145.874,-43.934
 L 145.502,-42.7874 L 145.276,-41.6032 L 145.2,-40.4 L 145.2,40.4 L 145.276,41.6032 L 145.502,42.7874
 L 145.874,43.934 L 146.387,45.0248 L 147.033,46.0427 L 147.802,46.9716 L 148.681,47.7969 L 149.656,48.5055
 L 150.713,49.0863 L 151.833,49.5301 L 153.001,49.8299 L 154.197,49.981 L 155.403,49.981 z
M 154.599,-37.2063 L 154.2,-37.2567 L 153.811,-37.3566 L 153.438,-37.5046 L 153.085,-37.6982 L 152.76,-37.9344
 L 152.467,-38.2095 L 152.211,-38.5191 L 151.996,-38.8584 L 151.825,-39.222 L 151.701,-39.6042 L 151.625,-39.9989
 L 151.6,-40.4 L 151.625,-40.8011 L 151.701,-41.1958 L 151.825,-41.578 L 151.996,-41.9416 L 152.211,-42.2809
 L 152.467,-42.5905 L 152.76,-42.8656 L 153.085,-43.1018 L 153.438,-43.2954 L 153.811,-43.4434 L 154.2,-43.5433
 L 154.599,-43.5937 L 155.001,-43.5937 L 155.4,-43.5433 L 155.789,-43.4434 L 156.162,-43.2954 L 156.515,-43.1018
 L 156.84,-42.8656 L 157.133,-42.5905 L 157.389,-42.2809 L 157.604,-41.9416 L 157.775,-41.578 L 157.899,-41.1958
 L 157.975,-40.8011 L 158,-40.4 L 157.975,-39.9989 L 157.899,-39.6042 L 157.775,-39.222 L 157.604,-38.8584
 L 157.389,-38.5191 L 157.133,-38.2095 L 156.84,-37.9344 L 156.515,-37.6982 L 156.162,-37.5046 L 155.789,-37.3566
 L 155.4,-37.2567 L 155.001,-37.2063 z
M 188.535,36.003 L 188.141,35.9263 L 187.759,35.8008 L 187.396,35.6284 L 187.058,35.4119 L 186.749,35.1547
 L 186.475,34.8608 L 186.24,34.5349 L 186.047,34.182 L 185.901,33.8079 L 185.802,33.4183 L 185.753,33.0194
 L 185.755,32.6176 L 185.806,32.2191 L 185.908,31.8302 L 186.057,31.4571 L 186.252,31.1056 L 186.489,30.7813
 L 186.765,30.4893 L 187.076,30.2343 L 187.416,30.0201 L 187.78,29.8503 L 188.163,29.7274 L 188.558,29.6535
 L 188.959,29.6297 L 189.36,29.6563 L 189.754,29.733 L 190.136,29.8585 L 190.499,30.0309 L 190.837,30.2474
 L 191.146,30.5046 L 191.42,30.7985 L 191.655,31.1245 L 191.848,31.4773 L 191.994,31.8514 L 192.093,32.241
 L 192.142,32.6399 L 192.141,33.0417 L 192.089,33.4402 L 191.987,33.8291 L 191.838,34.2022 L 191.643,34.5537
 L 191.406,34.878 L 191.13,35.17 L 190.819,35.4251 L 190.479,35.6392 L 190.115,35.809 L 189.733,35.9319
 L 189.338,36.0058 L 188.936,36.0296 z
M -153.001,49.8299 L -151.833,49.5301 L -150.713,49.0863 L -149.656,48.5055 L -148.681,47.7969 L -147.802,46.9716
 L -147.033,46.0427 L -146.387,45.0248 L -145.874,43.934 L -145.502,42.7874 L -145.276,41.6032 L -145.2,40.4
 L -145.2,-40.4 L -145.276,-41.6032 L -145.502,-42.7874 L -145.874,-43.934 L -146.387,-45.0248 L -147.033,-46.0427
 L -147.802,-46.9716 L -148.681,-47.7969 L -149.656,-48.5055 L -150.713,-49.0863 L -151.833,-49.5301 L -153.001,-49.8299
 L -154.197,-49.981 L -155.403,-49.981 L -156.599,-49.8299 L -157.767,-49.5301 L -158.887,-49.0863 L -159.944,-48.5055
 L -160.919,-47.7969 L -161.798,-46.9716 L -162.567,-46.0427 L -163.213,-45.0248 L -163.726,-43.934 L -197.648,28.7725
 L -198.088,29.895 L -198.384,31.0637 L -198.531,32.2603 L -198.526,33.4659 L -198.371,34.6614 L -198.067,35.8281
 L -197.62,36.9474 L -197.035,38.0018 L -196.323,38.9747 L -195.495,39.8506 L -194.563,40.6159 L -193.543,41.2583
 L -192.45,41.7678 L -186.279,44.3242 L -185.146,44.7366 L -178.775,46.7454 L -177.61,47.0574 L -171.088,48.5033
 L -169.901,48.7126 L -163.278,49.5846 L -162.077,49.6897 L -155.403,49.981 L -154.197,49.981 z
M -155.001,-37.2063 L -155.4,-37.2567 L -155.789,-37.3566 L -156.162,-37.5046 L -156.515,-37.6982 L -156.84,-37.9344
 L -157.133,-38.2095 L -157.389,-38.5191 L -157.604,-38.8584 L -157.775,-39.222 L -157.899,-39.6042 L -157.975,-39.9989
 L -158,-40.4 L -157.975,-40.8011 L -157.899,-41.1958 L -157.775,-41.578 L -157.604,-41.9416 L -157.389,-42.2809
 L -157.133,-42.5905 L -156.84,-42.8656 L -156.515,-43.1018 L -156.162,-43.2954 L -155.789,-43.4434 L -155.4,-43.5433
 L -155.001,-43.5937 L -154.599,-43.5937 L -154.2,-43.5433 L -153.811,-43.4434 L -153.438,-43.2954 L -153.085,-43.1018
 L -152.76,-42.8656 L -152.467,-42.5905 L -152.211,-42.2809 L -151.996,-41.9416 L -151.825,-41.578 L -151.701,-41.1958
 L -151.625,-40.8011 L -151.6,-40.4 L -151.625,-39.9989 L -151.701,-39.6042 L -151.825,-39.222 L -151.996,-38.8584
 L -152.211,-38.5191 L -152.467,-38.2095 L -152.76,-37.9344 L -153.085,-37.6982 L -153.438,-37.5046 L -153.811,-37.3566
 L -154.2,-37.2567 L -154.599,-37.2063 z
M -189.338,36.0058 L -189.733,35.9319 L -190.115,35.809 L -190.479,35.6392 L -190.819,35.4251 L -191.13,35.17
 L -191.406,34.878 L -191.643,34.5537 L -191.838,34.2022 L -191.987,33.8291 L -192.089,33.4402 L -192.141,33.0417
 L -192.142,32.6399 L -192.093,32.241 L -191.994,31.8514 L -191.848,31.4773 L -191.655,31.1245 L -191.42,30.7985
 L -191.146,30.5046 L -190.837,30.2474 L -190.499,30.0309 L -190.136,29.8585 L -189.754,29.733 L -189.36,29.6563
 L -188.959,29.6297 L -188.558,29.6535 L -188.163,29.7274 L -187.78,29.8503 L -187.416,30.0201 L -187.076,30.2343
 L -186.765,30.4893 L -186.489,30.7813 L -186.252,31.1056 L -186.057,31.4571 L -185.908,31.8302 L -185.806,32.2191
 L -185.755,32.6176 L -185.753,33.0194 L -185.802,33.4183 L -185.901,33.8079 L -186.047,34.182 L -186.24,34.5349
 L -186.475,34.8608 L -186.749,35.1547 L -187.058,35.4119 L -187.396,35.6284 L -187.759,35.8008 L -188.141,35.9263
 L -188.535,36.003 L -188.936,36.0296 z
" stroke="black" fill="lightgray" stroke-width="0.5"/>
</svg>
