<?xml version="1.0" encoding="UTF-8" standalone="no"?>
<svg
   xmlns:dc="http://purl.org/dc/elements/1.1/"
   xmlns:cc="http://creativecommons.org/ns#"
   xmlns:rdf="http://www.w3.org/1999/02/22-rdf-syntax-ns#"
   xmlns:svg="http://www.w3.org/2000/svg"
   xmlns="http://www.w3.org/2000/svg"
   xmlns:sodipodi="http://sodipodi.sourceforge.net/DTD/sodipodi-0.dtd"
   xmlns:inkscape="http://www.inkscape.org/namespaces/inkscape"
   width="20mm"
   height="10mm"
   viewBox="0 0 20 10"
   version="1.1"
   id="svg8"
   inkscape:version="1.0.1 (c497b03c, 2020-09-10)"
   sodipodi:docname="kiwi_10x20.svg">
  <defs
     id="defs2" />
  <sodipodi:namedview
     id="base"
     pagecolor="#ffffff"
     bordercolor="#666666"
     borderopacity="1.0"
     inkscape:pageopacity="0.0"
     inkscape:pageshadow="2"
     inkscape:zoom="11.2"
     inkscape:cx="26.041881"
     inkscape:cy="16.827918"
     inkscape:document-units="mm"
     inkscape:current-layer="layer1"
     inkscape:document-rotation="0"
     showgrid="false"
     height="40mm"
     inkscape:window-width="1920"
     inkscape:window-height="1035"
     inkscape:window-x="0"
     inkscape:window-y="23"
     inkscape:window-maximized="1"
     inkscape:snap-global="false"
     inkscape:snap-midpoints="true"
     inkscape:snap-smooth-nodes="true" />
  <metadata
     id="metadata5">
    <rdf:RDF>
      <cc:Work
         rdf:about="">
        <dc:format>image/svg+xml</dc:format>
        <dc:type
           rdf:resource="http://purl.org/dc/dcmitype/StillImage" />
        <dc:title></dc:title>
      </cc:Work>
    </rdf:RDF>
  </metadata>
  <g
     inkscape:label="Layer 1"
     inkscape:groupmode="layer"
     id="layer1">
    <path
       id="path833"
       style="fill:none;fill-opacity:0.5;stroke:#000000;stroke-width:0.16;stroke-miterlimit:4;stroke-dasharray:none;stroke-opacity:1"
       d="M 15.981747,0.72937306 A 2.0521053,2.4046384 60.897672 0 0 14.830899,1.0040733 2.0521053,2.4046384 60.897672 0 0 13.394194,2.8085558 l -0.05532,0.018125 -0.789259,0.2606028 a 0.81156626,1.123566 0 0 0 -0.60104,1.3537645 0.81156626,1.123566 0 0 0 0.97785,0.8321564 L 13.715684,5.012199 14.389859,4.789861 a 2.0521053,2.4046384 60.897672 0 0 1.440787,0.1800455 l -0.271378,1.2961658 -0.0067,-0.00168 -0.0026,-0.00646 -0.01745,0.00239 -0.02636,-0.00518 -0.006,0.010075 -1.10964,0.1639343 0.06497,0.2195183 0.834922,-0.03182 -0.518624,0.8696165 0.178938,0.061621 0.554264,-0.7930859 0.01448,1.1000082 0.189333,-0.09304 0.08873,-1.4250572 0.01374,-0.019735 -0.01262,-0.00239 0.0026,-0.040275 -0.02116,0.013289 0.375324,-1.3972655 a 2.0521053,2.4046384 60.897672 0 0 0.279614,-0.103488 l 0.908428,1.0335498 -0.02971,0.00239 -0.01374,-0.025374 -1.133028,0.332298 0.08835,0.2086443 0.93293,-0.1679625 -0.236109,1.0323414 0.191561,0.00646 0.306645,-0.9912567 0.393887,1.1249811 0.15258,-0.1425859 -0.383492,-1.4335169 -0.03675,0.042293 0.0034,-0.010474 -0.0037,4.116e-4 0.0071,-0.00279 -0.902859,-1.1298145 a 2.0521053,2.4046384 60.897672 0 0 1.17085,-2.8461417 2.0521053,2.4046384 60.897672 0 0 -1.86957,-1.09114804 z" />
    <ellipse
       style="fill:none;fill-opacity:0.5;stroke:#000000;stroke-width:0.16;stroke-miterlimit:4;stroke-dasharray:none;stroke-opacity:1"
       id="path860"
       cx="12.855754"
       cy="3.671412"
       rx="0.40541649"
       ry="0.35915798" />
    <path
       id="rect864"
       style="fill:#ffffff;fill-opacity:1;stroke:#000000;stroke-width:0.16;stroke-miterlimit:4;stroke-dasharray:none;stroke-opacity:1"
       d="m 9.9199343,7.032133 2.3060187,-2.1260136 0.161164,0.1960593 -2.40713,2.091655 z"
       sodipodi:nodetypes="ccccc" />
    <path
       style="fill:none;stroke:#000000;stroke-width:0.174345;stroke-linecap:butt;stroke-linejoin:miter;stroke-miterlimit:4;stroke-dasharray:none;stroke-opacity:1"
       d="M 8.8063265,0.88380785 C 8.3868146,2.3778566 7.6452419,3.1578749 5.3944759,4.2099703 3.2303851,5.2215505 2.3052607,5.8760403 1.4495312,7.3390451"
       id="path921"
       sodipodi:nodetypes="csc" />
    <path
       id="path927"
       style="fill:none;fill-opacity:0.5;stroke:#000000;stroke-width:0.16;stroke-miterlimit:4;stroke-dasharray:none;stroke-opacity:1"
       inkscape:transform-center-x="0.037742626"
       inkscape:transform-center-y="0.035786786"
       d="M 9.2124536,8.6343339 7.9724863,8.7981009 8.2609288,9.4295629 7.4586001,8.7546189 6.583412,9.0686349 6.9678882,8.3357789 6.4505149,7.8753209 7.0507391,7.7515119 6.8819957,6.963009 7.6447641,7.4417823 8.299339,7.0499716 8.1356914,7.7452879 9.2529362,7.676727 8.5289961,8.1965089 Z"
       sodipodi:nodetypes="ccccccccccccccc" />
    <path
       id="path929"
       style="fill:#ffffff;fill-opacity:1;stroke:#000000;stroke-width:0.16;stroke-miterlimit:4;stroke-dasharray:none;stroke-opacity:1"
       inkscape:transform-center-x="0.10529479"
       inkscape:transform-center-y="0.0089040206"
       d="M 8.5467889,8.4252839 8.198245,8.4193839 8.128835,8.7722519 7.8896865,8.4987589 7.7108365,8.6828559 7.41204,8.5033779 7.1491044,8.5370579 7.2176644,8.2647709 6.917857,8.0470149 7.1757911,7.9015689 7.1697111,7.600602 7.5517224,7.634352 7.6337834,7.1606145 7.8859411,7.6028811 8.269072,7.5263511 8.22246,7.8632659 8.6021704,7.9332559 8.4215632,8.1610109 Z"
       sodipodi:nodetypes="ccccccccccccccccccc" />
    <rect
       style="fill:#ffffff;fill-opacity:1;stroke:#000000;stroke-width:0.173441;stroke-miterlimit:4;stroke-dasharray:none;stroke-opacity:1"
       id="rect915"
       width="0.12937056"
       height="6.4214554"
       x="13.181188"
       y="0.21056734"
       transform="matrix(0.95816977,0.28620045,-0.74674211,0.66511369,0,0)" />
    <path
       id="path853"
       style="fill:none;fill-opacity:0.5;stroke:#000000;stroke-width:0.174345;stroke-miterlimit:4;stroke-dasharray:none;stroke-opacity:1"
       d="M 2.9101943,5.5026851 3.3544325,3.1521452 3.9289267,3.013557 3.4103609,5.1631379 Z"
       sodipodi:nodetypes="ccccc"
       inkscape:transform-center-x="0.096296139"
       inkscape:transform-center-y="-0.77072316" />
    <path
       id="path855"
       style="fill:none;fill-opacity:0.5;stroke:#000000;stroke-width:0.174345;stroke-miterlimit:4;stroke-dasharray:none;stroke-opacity:1"
       d="M 3.8793274,4.9434961 4.357222,2.8986856 4.8801472,2.7302101 4.5069555,4.5962797 Z"
       sodipodi:nodetypes="ccccc"
       inkscape:transform-center-x="-0.19228042"
       inkscape:transform-center-y="-0.94361889" />
    <path
       id="path857"
       style="fill:none;fill-opacity:0.5;stroke:#000000;stroke-width:0.174345;stroke-miterlimit:4;stroke-dasharray:none;stroke-opacity:1"
       d="M 4.8914756,4.3661784 5.306266,2.5754433 5.7697264,2.4692812 5.3986124,4.0951056 Z"
       sodipodi:nodetypes="ccccc"
       inkscape:transform-center-x="-0.078047692"
       inkscape:transform-center-y="-0.84571372" />
    <path
       id="path859"
       style="fill:none;fill-opacity:0.5;stroke:#000000;stroke-width:0.174345;stroke-miterlimit:4;stroke-dasharray:none;stroke-opacity:1"
       d="M 5.8350458,3.9364893 6.0737278,2.5937535 6.5244649,2.4624783 6.3197813,3.6730926 Z"
       sodipodi:nodetypes="ccccc"
       inkscape:transform-center-x="0.050540259"
       inkscape:transform-center-y="-0.73638227" />
    <path
       id="path861"
       style="fill:none;fill-opacity:0.5;stroke:#000000;stroke-width:0.174345;stroke-miterlimit:4;stroke-dasharray:none;stroke-opacity:1"
       d="M 7.5049357,3.0604583 7.5460793,2.3203016 7.8183329,1.9384942 7.8312407,2.7014739 Z"
       sodipodi:nodetypes="ccccc"
       inkscape:transform-center-x="0.27903368"
       inkscape:transform-center-y="-0.50519116" />
    <path
       id="path863"
       style="fill:none;fill-opacity:0.5;stroke:#000000;stroke-width:0.174345;stroke-miterlimit:4;stroke-dasharray:none;stroke-opacity:1"
       d="M 8.0578651,2.272139 8.0064927,1.9057628 8.1998238,1.4044002 8.3898695,1.8428957 Z"
       sodipodi:nodetypes="ccccc"
       inkscape:transform-center-x="-0.044366057"
       inkscape:transform-center-y="-0.35636901" />
    <path
       id="path865"
       style="fill:none;fill-opacity:0.5;stroke:#000000;stroke-width:0.174345;stroke-miterlimit:4;stroke-dasharray:none;stroke-opacity:1"
       d="M 4.9630645,6.0085202 2.998163,5.6410779 3.3839587,5.2898765 5.5166145,5.7745874 Z"
       sodipodi:nodetypes="ccccc"
       inkscape:transform-center-x="-0.99051332"
       inkscape:transform-center-y="0.21280331" />
    <path
       id="path867"
       style="fill:none;fill-opacity:0.5;stroke:#000000;stroke-width:0.174345;stroke-miterlimit:4;stroke-dasharray:none;stroke-opacity:1"
       d="M 5.8746753,5.5659521 3.5475772,5.1782435 4.1998149,4.8798924 6.7167802,5.3172334 Z"
       sodipodi:nodetypes="ccccc"
       inkscape:transform-center-x="-1.0947797"
       inkscape:transform-center-y="0.26548834" />
    <path
       id="path869"
       style="fill:none;fill-opacity:0.5;stroke:#000000;stroke-width:0.174345;stroke-miterlimit:4;stroke-dasharray:none;stroke-opacity:1"
       d="M 7.5097516,4.544982 5.361244,4.2378871 5.9163641,3.972554 7.9534943,4.2179194 Z"
       sodipodi:nodetypes="ccccc"
       inkscape:transform-center-x="-1.2439091"
       inkscape:transform-center-y="0.0025470379" />
    <path
       id="path871"
       style="fill:none;fill-opacity:0.5;stroke:#000000;stroke-width:0.174345;stroke-miterlimit:4;stroke-dasharray:none;stroke-opacity:1"
       d="M 8.6778833,3.1967701 7.1134439,3.3957593 7.6517487,3.0490155 8.7636454,2.9152988 Z"
       sodipodi:nodetypes="ccccc"
       inkscape:transform-center-x="-1.1207503"
       inkscape:transform-center-y="-0.20631031" />
    <path
       id="path873"
       style="fill:none;fill-opacity:0.5;stroke:#000000;stroke-width:0.174345;stroke-miterlimit:4;stroke-dasharray:none;stroke-opacity:1"
       d="M 8.7835549,2.6551731 7.7977649,2.8273458 8.1269502,2.5196576 8.8618013,2.340522 Z"
       sodipodi:nodetypes="ccccc"
       inkscape:transform-center-x="-0.70632769"
       inkscape:transform-center-y="-0.13992902" />
    <path
       id="path875"
       style="fill:none;fill-opacity:0.5;stroke:#000000;stroke-width:0.174345;stroke-miterlimit:4;stroke-dasharray:none;stroke-opacity:1"
       d="M 8.8934172,2.0933189 8.1041868,2.3339663 8.2606502,1.993651 8.8660482,1.7911526 Z"
       sodipodi:nodetypes="ccccc"
       inkscape:transform-center-x="-0.52069586"
       inkscape:transform-center-y="-0.17661941" />
    <path
       id="path876"
       style="fill:none;fill-opacity:0.5;stroke:#000000;stroke-width:0.174345;stroke-miterlimit:4;stroke-dasharray:none;stroke-opacity:1"
       d="M 6.6231041,3.6068836 6.8942817,2.3799579 7.2192797,2.3155 7.1078396,3.3434869 Z"
       sodipodi:nodetypes="ccccc"
       inkscape:transform-center-x="0.050540242"
       inkscape:transform-center-y="-0.73638226" />
    <path
       id="path878"
       style="fill:none;fill-opacity:0.5;stroke:#000000;stroke-width:0.174345;stroke-miterlimit:4;stroke-dasharray:none;stroke-opacity:1"
       d="M 6.9327425,5.0958728 4.3919255,4.6956065 5.0441632,4.3972555 7.34843,4.7499546 Z"
       sodipodi:nodetypes="ccccc"
       inkscape:transform-center-x="-1.0947797"
       inkscape:transform-center-y="0.26548834" />
    <path
       id="path880"
       style="fill:none;fill-opacity:0.5;stroke:#000000;stroke-width:0.174345;stroke-miterlimit:4;stroke-dasharray:none;stroke-opacity:1"
       d="M 8.088549,3.9985542 6.290027,3.8258799 6.8732921,3.5134603 8.47337,3.5351647 Z"
       sodipodi:nodetypes="ccccc"
       inkscape:transform-center-x="-1.2439091"
       inkscape:transform-center-y="0.0025470299" />
    <path
       style="fill:none;stroke:#000000;stroke-width:0.2;stroke-linecap:butt;stroke-linejoin:miter;stroke-miterlimit:4;stroke-dasharray:none;stroke-opacity:1"
       d="M 8.6225817,1.4882812 8.3804408,1.063058"
       id="path882"
       sodipodi:nodetypes="cc" />
    <path
       style="fill:none;stroke:#000000;stroke-width:0.3;stroke-linecap:butt;stroke-linejoin:miter;stroke-miterlimit:4;stroke-dasharray:none;stroke-opacity:1"
       d="M 8.4926524,1.6182105 9.0537109,1.3937871"
       id="path884"
       sodipodi:nodetypes="cc" />
    <path
       style="fill:none;stroke:#000000;stroke-width:0.15;stroke-linecap:butt;stroke-linejoin:miter;stroke-miterlimit:4;stroke-dasharray:none;stroke-opacity:1"
       d="M 8.6698287,1.3347284 9.0241815,1.063058"
       id="path886"
       sodipodi:nodetypes="cc" />
  </g>
</svg>
