<?xml version="1.0" encoding="UTF-8" standalone="no"?>
<svg
   xmlns:dc="http://purl.org/dc/elements/1.1/"
   xmlns:cc="http://creativecommons.org/ns#"
   xmlns:rdf="http://www.w3.org/1999/02/22-rdf-syntax-ns#"
   xmlns:svg="http://www.w3.org/2000/svg"
   xmlns="http://www.w3.org/2000/svg"
   xmlns:sodipodi="http://sodipodi.sourceforge.net/DTD/sodipodi-0.dtd"
   xmlns:inkscape="http://www.inkscape.org/namespaces/inkscape"
   width="12mm"
   height="12mm"
   viewBox="0 0 12 12"
   version="1.1"
   id="svg8"
   inkscape:version="1.0.1 (c497b03c, 2020-09-10)"
   sodipodi:docname="kiwi.svg">
  <defs
     id="defs2" />
  <sodipodi:namedview
     id="base"
     pagecolor="#ffffff"
     bordercolor="#666666"
     borderopacity="1.0"
     inkscape:pageopacity="0.0"
     inkscape:pageshadow="2"
     inkscape:zoom="31.678384"
     inkscape:cx="16.447653"
     inkscape:cy="9.6553203"
     inkscape:document-units="mm"
     inkscape:current-layer="layer1"
     inkscape:document-rotation="0"
     showgrid="false"
     height="40mm"
     inkscape:window-width="1440"
     inkscape:window-height="855"
     inkscape:window-x="0"
     inkscape:window-y="181"
     inkscape:window-maximized="0"
     inkscape:snap-global="false"
     inkscape:snap-midpoints="true"
     inkscape:snap-smooth-nodes="true" />
  <metadata
     id="metadata5">
    <rdf:RDF>
      <cc:Work
         rdf:about="">
        <dc:format>image/svg+xml</dc:format>
        <dc:type
           rdf:resource="http://purl.org/dc/dcmitype/StillImage" />
        <dc:title />
      </cc:Work>
    </rdf:RDF>
  </metadata>
  <g
     inkscape:label="Layer 1"
     inkscape:groupmode="layer"
     id="layer1">
    <path
       id="path833"
       style="fill:none;fill-opacity:0.5;stroke:#000000;stroke-width:0.127629;stroke-miterlimit:4;stroke-dasharray:none;stroke-opacity:1"
       d="M 9.6978928,2.9972302 A 2.0521053,2.4046384 60.897672 0 0 8.5470444,3.2719304 2.0521053,2.4046384 60.897672 0 0 7.11034,5.0764129 L 7.055025,5.0945381 6.2657659,5.3551409 a 0.81156626,1.123566 0 0 0 -0.60104,1.3537645 0.81156626,1.123566 0 0 0 0.97785,0.8321564 L 7.431835,7.2800563 8.1060095,7.0577183 a 2.0521053,2.4046384 60.897672 0 0 1.4407878,0.1800455 l -0.2713782,1.2961658 -0.0067,-0.00168 -0.00255,-0.00646 -0.017453,0.00239 -0.026363,-0.00518 -0.00598,0.010075 -1.1096401,0.1639343 0.064971,0.2195183 0.834922,-0.03182 -0.518624,0.8696165 0.1789379,0.061621 0.5542636,-0.7930859 0.014478,1.1000082 0.1893332,-0.09304 0.088727,-1.4250572 0.013736,-0.019735 -0.012619,-0.00239 0.00255,-0.040275 -0.021163,0.013289 0.3753242,-1.3972655 a 2.0521053,2.4046384 60.897672 0 0 0.2796141,-0.103488 l 0.908428,1.0335498 -0.02971,0.00239 -0.01374,-0.025374 -1.1330281,0.332298 0.088355,0.2086443 0.9329301,-0.1679625 -0.236109,1.0323414 0.191561,0.00646 0.306645,-0.9912567 0.393887,1.1249811 0.15258,-0.1425859 -0.383492,-1.4335169 -0.03675,0.042293 0.0034,-0.010474 -0.0037,4.116e-4 0.0071,-0.00279 L 10.396682,6.9345 a 2.0521053,2.4046384 60.897672 0 0 1.17085,-2.8461417 2.0521053,2.4046384 60.897672 0 0 -1.8695706,-1.091148 z" />
    <ellipse
       style="fill:none;fill-opacity:0.5;stroke:#000000;stroke-width:0.127629;stroke-miterlimit:4;stroke-dasharray:none;stroke-opacity:1"
       id="path860"
       cx="6.5718994"
       cy="5.9392691"
       rx="0.40541649"
       ry="0.35915798" />
    <path
       id="rect864"
       style="fill:#ffffff;fill-opacity:1;stroke:#000000;stroke-width:0.127629;stroke-miterlimit:4;stroke-dasharray:none;stroke-opacity:1"
       d="M 3.6360801,9.2999901 5.9420993,7.1739765 6.1032633,7.3700358 3.6961328,9.4616908 Z"
       sodipodi:nodetypes="ccccc" />
    <path
       style="fill:none;stroke:#000000;stroke-width:0.127629;stroke-linecap:butt;stroke-linejoin:miter;stroke-miterlimit:4;stroke-dasharray:none;stroke-opacity:1"
       d="M 7.0460734,0.13754103 C 6.6040683,1.5805029 5.738474,2.1295697 4.0072863,3.2839995 2.2760997,4.4384289 1.8868176,4.5423368 1.1685593,6.0103283"
       id="path921"
       sodipodi:nodetypes="csc" />
    <path
       id="path927"
       style="fill:none;fill-opacity:0.5;stroke:#000000;stroke-width:0.127629;stroke-miterlimit:4;stroke-dasharray:none;stroke-opacity:1"
       inkscape:transform-center-x="0.037742626"
       inkscape:transform-center-y="0.035786786"
       d="M 2.9285994,10.902191 1.6886321,11.065958 1.9770746,11.69742 1.1747459,11.022476 0.29955782,11.336492 0.68403408,10.603636 0.16666069,10.143178 0.7668849,10.019369 0.59814157,9.2308661 1.3609099,9.7096394 2.0154848,9.3178287 1.8518372,10.013145 2.969082,9.9445841 2.2451419,10.464366 Z"
       sodipodi:nodetypes="ccccccccccccccc" />
    <path
       id="path929"
       style="fill:#ffffff;fill-opacity:1;stroke:#000000;stroke-width:0.127629;stroke-miterlimit:4;stroke-dasharray:none;stroke-opacity:1"
       inkscape:transform-center-x="0.10529479"
       inkscape:transform-center-y="0.0089040206"
       d="m 2.2629347,10.693141 -0.3485439,-0.0059 -0.06941,0.352868 -0.2391485,-0.273493 -0.17885,0.184097 -0.2987965,-0.179478 -0.26293557,0.03368 0.0685601,-0.272287 -0.29980738,-0.217756 0.25793412,-0.145446 -0.006078,-0.3009669 0.38201123,0.03375 0.082061,-0.4737375 0.2521577,0.4422666 0.3831309,-0.07653 -0.046612,0.3369148 0.3797104,0.06999 -0.1806072,0.227755 z"
       sodipodi:nodetypes="ccccccccccccccccccc" />
    <rect
       style="fill:#ffffff;fill-opacity:1;stroke:#000000;stroke-width:0.138351;stroke-miterlimit:4;stroke-dasharray:none;stroke-opacity:1"
       id="rect915"
       width="0.12937056"
       height="6.4214554"
       x="10.259984"
       y="4.8772988"
       transform="matrix(0.95816977,0.28620045,-0.74674211,0.66511369,0,0)" />
    <path
       id="path853"
       style="fill:none;fill-opacity:0.5;stroke:#000000;stroke-width:0.127629;stroke-miterlimit:4;stroke-dasharray:none;stroke-opacity:1"
       d="M 1.9762502,4.6649641 1.8707718,3.3699396 2.4973201,2.8154507 2.4112065,4.3184275 Z"
       sodipodi:nodetypes="ccccc"
       inkscape:transform-center-x="0.083740758"
       inkscape:transform-center-y="-0.78658847" />
    <path
       id="path855"
       style="fill:none;fill-opacity:0.5;stroke:#000000;stroke-width:0.127629;stroke-miterlimit:4;stroke-dasharray:none;stroke-opacity:1"
       d="M 2.7456039,4.1062782 2.8498768,2.5257875 3.4407345,1.8911357 3.377068,3.6798307 Z"
       sodipodi:nodetypes="ccccc"
       inkscape:transform-center-x="-0.1672115"
       inkscape:transform-center-y="-0.96304324" />
    <path
       id="path857"
       style="fill:none;fill-opacity:0.5;stroke:#000000;stroke-width:0.127629;stroke-miterlimit:4;stroke-dasharray:none;stroke-opacity:1"
       d="M 3.8460704,3.3729091 3.7608513,1.6591542 4.4713254,1.0981675 4.3972279,3.0001447 Z"
       sodipodi:nodetypes="ccccc"
       inkscape:transform-center-x="-0.067872048"
       inkscape:transform-center-y="-0.86312275" />
    <path
       id="path859"
       style="fill:none;fill-opacity:0.5;stroke:#000000;stroke-width:0.127629;stroke-miterlimit:4;stroke-dasharray:none;stroke-opacity:1"
       d="M 4.7767603,2.7061099 4.7510123,1.2570119 5.355603,0.69247762 5.3206749,2.3171516 Z"
       sodipodi:nodetypes="ccccc"
       inkscape:transform-center-x="0.043950958"
       inkscape:transform-center-y="-0.75154062" />
    <path
       id="path861"
       style="fill:none;fill-opacity:0.5;stroke:#000000;stroke-width:0.127629;stroke-miterlimit:4;stroke-dasharray:none;stroke-opacity:1"
       d="M 5.7149493,2.028297 5.6405888,0.98456932 6.0609128,0.47476297 6.1333263,1.6859508 Z"
       sodipodi:nodetypes="ccccc"
       inkscape:transform-center-x="0.24265398"
       inkscape:transform-center-y="-0.51559044" />
    <path
       id="path863"
       style="fill:none;fill-opacity:0.5;stroke:#000000;stroke-width:0.127629;stroke-miterlimit:4;stroke-dasharray:none;stroke-opacity:1"
       d="M 6.4038311,1.2838199 6.3224429,0.63358121 6.5757903,0.23031005 6.7584321,0.84627311 Z"
       sodipodi:nodetypes="ccccc"
       inkscape:transform-center-x="-0.03858178"
       inkscape:transform-center-y="-0.36370477" />
    <path
       id="path865"
       style="fill:none;fill-opacity:0.5;stroke:#000000;stroke-width:0.127629;stroke-miterlimit:4;stroke-dasharray:none;stroke-opacity:1"
       d="M 3.5597027,5.0597711 2.2557949,4.4955615 2.8394719,4.1195397 4.4023022,4.777794 Z"
       sodipodi:nodetypes="ccccc"
       inkscape:transform-center-x="-0.83138932"
       inkscape:transform-center-y="0.21352869" />
    <path
       id="path867"
       style="fill:none;fill-opacity:0.5;stroke:#000000;stroke-width:0.127629;stroke-miterlimit:4;stroke-dasharray:none;stroke-opacity:1"
       d="M 5.0571939,4.5212005 3.1185465,3.865785 3.8077445,3.4010524 5.9146839,3.9370795 Z"
       sodipodi:nodetypes="ccccc"
       inkscape:transform-center-x="-0.91890549"
       inkscape:transform-center-y="0.26639327" />
    <path
       id="path869"
       style="fill:none;fill-opacity:0.5;stroke:#000000;stroke-width:0.127629;stroke-miterlimit:4;stroke-dasharray:none;stroke-opacity:1"
       d="M 6.315809,3.6742622 4.1329459,3.2057055 4.8351222,2.6796095 6.8159855,2.9730583 Z"
       sodipodi:nodetypes="ccccc"
       inkscape:transform-center-x="-1.0440776"
       inkscape:transform-center-y="0.0025557012" />
    <path
       id="path871"
       style="fill:none;fill-opacity:0.5;stroke:#000000;stroke-width:0.139999;stroke-miterlimit:4;stroke-dasharray:none;stroke-opacity:1"
       d="M 6.8577148,2.5980748 5.3319879,2.4079544 6.0436737,1.9419111 7.3194873,2.0557853 Z"
       sodipodi:nodetypes="ccccc"
       inkscape:transform-center-x="-0.94070399"
       inkscape:transform-center-y="-0.20701354" />
    <path
       id="path873"
       style="fill:none;fill-opacity:0.5;stroke:#000000;stroke-width:0.127629;stroke-miterlimit:4;stroke-dasharray:none;stroke-opacity:1"
       d="M 7.2593399,1.7138941 6.1741378,1.7145933 6.5292558,1.2209638 7.5470329,1.1306775 Z"
       sodipodi:nodetypes="ccccc"
       inkscape:transform-center-x="-0.58456111"
       inkscape:transform-center-y="-0.17077362" />
    <path
       id="path875"
       style="fill:none;fill-opacity:0.5;stroke:#000000;stroke-width:0.127629;stroke-miterlimit:4;stroke-dasharray:none;stroke-opacity:1"
       d="M 7.4165998,0.7467219 6.7541577,0.98818953 6.8854856,0.64671429 7.3936276,0.44352557 Z"
       sodipodi:nodetypes="ccccc"
       inkscape:transform-center-x="-0.43704708"
       inkscape:transform-center-y="-0.17722146" />
  </g>
</svg>
