<?xml version="1.0" encoding="UTF-8" standalone="no"?>
<svg
   version="1.1"
   width="5.0587749cm"
   height="3.0630739cm"
   viewBox="0 0 19916.436 12059.346"
   id="svg444"
   sodipodi:docname="logic-level-shifting-using-sn74lvc1t45dbv.svg"
   inkscape:version="1.1.1 (3bf5ae0d25, 2021-09-20)"
   xmlns:inkscape="http://www.inkscape.org/namespaces/inkscape"
   xmlns:sodipodi="http://sodipodi.sourceforge.net/DTD/sodipodi-0.dtd"
   xmlns="http://www.w3.org/2000/svg"
   xmlns:svg="http://www.w3.org/2000/svg"
   xmlns:rdf="http://www.w3.org/1999/02/22-rdf-syntax-ns#"
   xmlns:cc="http://creativecommons.org/ns#"
   xmlns:dc="http://purl.org/dc/elements/1.1/">
  <defs
     id="defs448" />
  <sodipodi:namedview
     id="namedview446"
     pagecolor="#ffffff"
     bordercolor="#666666"
     borderopacity="1.0"
     inkscape:pageshadow="2"
     inkscape:pageopacity="0.0"
     inkscape:pagecheckerboard="0"
     inkscape:document-units="cm"
     showgrid="false"
     width="5cm"
     fit-margin-top="0"
     fit-margin-left="0"
     fit-margin-right="0"
     fit-margin-bottom="0"
     inkscape:zoom="1.049478"
     inkscape:cx="512.1594"
     inkscape:cy="344.9334"
     inkscape:window-width="1920"
     inkscape:window-height="1011"
     inkscape:window-x="0"
     inkscape:window-y="32"
     inkscape:window-maximized="1"
     inkscape:current-layer="svg444" />
  <title
     id="title2">SVG Picture created as logic-level-shifting-using-sn74lvc1t45dbv.svg date 2021/12/22 23:54:20 </title>
  <desc
     id="desc4">Picture generated by Eeschema-SVG </desc>
  <g
     style="fill:#000000;fill-opacity:1;stroke:#000000;stroke-linecap:round;stroke-linejoin:round;stroke-opacity:1"
     id="g6"
     transform="translate(-5187.5701,-5480)" />
  <g
     style="fill:#000000;fill-opacity:0;stroke:#000000;stroke-width:0;stroke-linecap:round;stroke-linejoin:round;stroke-opacity:1"
     id="g214"
     transform="translate(-5187.5701,-5480)">
    <g
       id="g8" />
    <g
       style="fill:#840000;fill-opacity:0;stroke:#840000;stroke-width:0;stroke-linecap:round;stroke-linejoin:round;stroke-opacity:1"
       id="g10" />
    <g
       style="fill:#ffffc2;fill-opacity:0;stroke:#ffffc2;stroke-width:0;stroke-linecap:round;stroke-linejoin:round;stroke-opacity:1"
       id="g12" />
    <g
       style="fill:#ffffc2;fill-opacity:0.6;stroke:#ffffc2;stroke-width:0;stroke-linecap:round;stroke-linejoin:round;stroke-opacity:1"
       id="g16">
      <rect
         x="12000"
         y="8500"
         width="6000"
         height="6000"
         rx="0"
         id="rect14" />
    </g>
    <g
       style="fill:#840000;fill-opacity:0.6;stroke:#840000;stroke-width:0;stroke-linecap:round;stroke-linejoin:round;stroke-opacity:1"
       id="g18" />
    <g
       style="fill:#840000;fill-opacity:0;stroke:#840000;stroke-width:100;stroke-linecap:round;stroke-linejoin:round;stroke-opacity:1"
       id="g24">
      <rect
         x="12000"
         y="8500"
         width="6000"
         height="6000"
         rx="0"
         id="rect20" />
      <rect
         x="12000"
         y="8500"
         width="6000"
         height="6000"
         rx="0"
         id="rect22" />
    </g>
    <g
       style="fill:#840000;fill-opacity:0;stroke:#840000;stroke-width:60;stroke-linecap:round;stroke-linejoin:round;stroke-opacity:1"
       id="g40">
      <path
         style="fill:none;fill-opacity:0;stroke:#840000;stroke-width:60;stroke-linecap:round;stroke-linejoin:round;stroke-opacity:1"
         d="m 14000,11500 v -400 h 700"
         id="path26" />
      <path
         style="fill:none;fill-opacity:0;stroke:#840000;stroke-width:60;stroke-linecap:round;stroke-linejoin:round;stroke-opacity:1"
         d="m 16100,11500 v 400 h -700"
         id="path28" />
      <path
         style="fill:none;fill-opacity:0;stroke:#840000;stroke-width:60;stroke-linecap:round;stroke-linejoin:round;stroke-opacity:1"
         d="m 14700,11900 h -700 v -400 h -800"
         id="path30" />
      <path
         style="fill:none;fill-opacity:0;stroke:#840000;stroke-width:60;stroke-linecap:round;stroke-linejoin:round;stroke-opacity:1"
         d="m 14700,11500 v -800 l 700,400 z"
         id="path32" />
      <path
         style="fill:none;fill-opacity:0;stroke:#840000;stroke-width:60;stroke-linecap:round;stroke-linejoin:round;stroke-opacity:1"
         d="m 15400,11100 h 700 v 400 h 500"
         id="path34" />
      <path
         style="fill:none;fill-opacity:0;stroke:#840000;stroke-width:60;stroke-linecap:round;stroke-linejoin:round;stroke-opacity:1"
         d="m 15400,11500 v 700 100 l -700,-400 z"
         id="path36" />
      <path
         d="M 14000,8500 V 7500"
         id="path38" />
    </g>
    <g
       style="fill:#008484;fill-opacity:0;stroke:#008484;stroke-width:60;stroke-linecap:round;stroke-linejoin:round;stroke-opacity:1"
       id="g56">
      <g
         transform="rotate(-90,14000,8700)"
         id="g44">
        <text
           x="14000"
           y="8950"
           textLength="1920"
           font-size="660px"
           lengthAdjust="spacingAndGlyphs"
           text-anchor="end"
           opacity="0"
           id="text42">VCCA</text>
      </g>
      <path
         d="m 13720,10530 500,-160 -500,-170"
         id="path46" />
      <path
         d="m 14170,9750 30,20 20,70 v 50 l -20,70 -50,50 -50,20 -90,30 h -70 l -100,-30 -50,-20 -40,-50 -30,-70 v -50 l 30,-70 20,-20"
         id="path48" />
      <path
         d="m 14170,9250 30,20 20,70 v 50 l -20,70 -50,50 -50,20 -90,30 h -70 l -100,-30 -50,-20 -40,-50 -30,-70 v -50 l 30,-70 20,-20"
         id="path50" />
      <path
         d="M 14080,9060 V 8820"
         id="path52" />
      <path
         d="m 14220,9110 -500,-170 500,-170"
         id="path54" />
    </g>
    <g
       style="fill:#840000;fill-opacity:0;stroke:#840000;stroke-width:60;stroke-linecap:round;stroke-linejoin:round;stroke-opacity:1"
       id="g68">
      <g
         transform="rotate(-90,13900,8000)"
         id="g60">
        <text
           x="13900"
           y="8000"
           textLength="540"
           font-size="660px"
           lengthAdjust="spacingAndGlyphs"
           text-anchor="middle"
           opacity="0"
           id="text58">1</text>
      </g>
      <path
         d="m 13870,7850 v 290"
         id="path62" />
      <path
         d="m 13870,8000 h -500 l 70,40 50,50 20,50"
         id="path64" />
      <path
         d="m 15000,14500 v 1000"
         id="path66" />
    </g>
    <g
       style="fill:#008484;fill-opacity:0;stroke:#008484;stroke-width:60;stroke-linecap:round;stroke-linejoin:round;stroke-opacity:1"
       id="g80">
      <g
         transform="rotate(-90,15000,14300)"
         id="g72">
        <text
           x="15000"
           y="14550"
           textLength="1580"
           font-size="660px"
           lengthAdjust="spacingAndGlyphs"
           text-anchor="start"
           opacity="0"
           id="text70">GND</text>
      </g>
      <path
         d="m 14750,13880 -30,50 v 70 l 30,70 40,50 50,30 100,20 h 70 l 90,-20 50,-30 50,-50 20,-70 v -40 l -20,-80 -30,-20 h -160 v 100"
         id="path74" />
      <path
         d="m 15220,13650 h -500 l 500,-290 h -500"
         id="path76" />
      <path
         d="m 15220,13120 h -500 v -120 l 30,-70 40,-50 50,-20 100,-20 h 70 l 90,20 50,20 50,50 20,70 v 120"
         id="path78" />
    </g>
    <g
       style="fill:#840000;fill-opacity:0;stroke:#840000;stroke-width:60;stroke-linecap:round;stroke-linejoin:round;stroke-opacity:1"
       id="g90">
      <g
         transform="rotate(-90,14900,15000)"
         id="g84">
        <text
           x="14900"
           y="15000"
           textLength="540"
           font-size="660px"
           lengthAdjust="spacingAndGlyphs"
           text-anchor="middle"
           opacity="0"
           id="text82">2</text>
      </g>
      <path
         d="m 14420,15140 -20,-30 -30,-40 v -120 l 30,-50 20,-20 50,-30 h 40 l 80,30 280,280 v -310"
         id="path86" />
      <path
         d="M 12000,11500 H 11000"
         id="path88" />
    </g>
    <g
       style="fill:#008484;fill-opacity:0;stroke:#008484;stroke-width:60;stroke-linecap:round;stroke-linejoin:round;stroke-opacity:1"
       id="g98">
      <text
         x="12200"
         y="11750"
         textLength="490"
         font-size="660px"
         lengthAdjust="spacingAndGlyphs"
         text-anchor="start"
         opacity="0"
         id="text92">A</text>
      <path
         d="m 12320,11580 h 240"
         id="path94" />
      <path
         d="m 12270,11720 170,-500 170,500"
         id="path96" />
    </g>
    <g
       style="fill:#840000;fill-opacity:0;stroke:#840000;stroke-width:60;stroke-linecap:round;stroke-linejoin:round;stroke-opacity:1"
       id="g106">
      <text
         x="11500"
         y="11400"
         textLength="540"
         font-size="660px"
         lengthAdjust="spacingAndGlyphs"
         text-anchor="middle"
         opacity="0"
         id="text100">3</text>
      <path
         d="m 11330,10870 h 310 l -170,190 h 70 l 50,30 20,20 30,50 v 120 l -30,40 -20,30 -50,20 h -140 l -50,-20 -20,-30"
         id="path102" />
      <path
         d="m 18000,11500 h 1000"
         id="path104" />
    </g>
    <g
       style="fill:#008484;fill-opacity:0;stroke:#008484;stroke-width:60;stroke-linecap:round;stroke-linejoin:round;stroke-opacity:1"
       id="g112">
      <text
         x="17800"
         y="11750"
         textLength="560"
         font-size="660px"
         lengthAdjust="spacingAndGlyphs"
         text-anchor="end"
         opacity="0"
         id="text108">B</text>
      <path
         d="m 17550,11460 70,20 30,30 20,40 v 80 l -20,40 -30,30 -50,20 h -190 v -500 h 170 l 50,30 20,20 30,50 v 40 l -30,50 -20,30 -50,20 h -170"
         id="path110" />
    </g>
    <g
       style="fill:#840000;fill-opacity:0;stroke:#840000;stroke-width:60;stroke-linecap:round;stroke-linejoin:round;stroke-opacity:1"
       id="g122">
      <text
         x="18500"
         y="11400"
         textLength="540"
         font-size="660px"
         lengthAdjust="spacingAndGlyphs"
         text-anchor="middle"
         opacity="0"
         id="text114">4</text>
      <path
         d="m 18590,11040 v 330"
         id="path116" />
      <path
         d="m 18470,10850 -120,350 h 310"
         id="path118" />
      <path
         d="M 12000,13500 H 11000"
         id="path120" />
    </g>
    <g
       style="fill:#008484;fill-opacity:0;stroke:#008484;stroke-width:60;stroke-linecap:round;stroke-linejoin:round;stroke-opacity:1"
       id="g134">
      <text
         x="12200"
         y="13750"
         textLength="1300"
         font-size="660px"
         lengthAdjust="spacingAndGlyphs"
         text-anchor="start"
         opacity="0"
         id="text124">DIR</text>
      <path
         d="m 12340,13720 v -500 h 120 l 70,30 50,40 30,50 20,100 v 70 l -20,90 -30,50 -50,50 -70,20 h -120"
         id="path126" />
      <path
         d="m 12840,13720 v -500"
         id="path128" />
      <path
         d="m 13370,13720 -170,-240"
         id="path130" />
      <path
         d="m 13080,13720 v -500 h 190 l 50,30 20,20 30,50 v 70 l -30,50 -20,20 -50,20 h -190"
         id="path132" />
    </g>
    <g
       style="fill:#840000;fill-opacity:0;stroke:#840000;stroke-width:60;stroke-linecap:round;stroke-linejoin:round;stroke-opacity:1"
       id="g142">
      <text
         x="11500"
         y="13400"
         textLength="540"
         font-size="660px"
         lengthAdjust="spacingAndGlyphs"
         text-anchor="middle"
         opacity="0"
         id="text136">5</text>
      <path
         d="m 11610,12870 h -230 l -30,240 30,-20 40,-30 h 120 l 50,30 20,20 30,50 v 120 l -30,40 -20,30 -50,20 h -120 l -40,-20 -30,-30"
         id="path138" />
      <path
         d="M 16000,8500 V 7500"
         id="path140" />
    </g>
    <g
       style="fill:#008484;fill-opacity:0;stroke:#008484;stroke-width:60;stroke-linecap:round;stroke-linejoin:round;stroke-opacity:1"
       id="g156">
      <g
         transform="rotate(-90,16000,8700)"
         id="g146">
        <text
           x="16000"
           y="8950"
           textLength="1990"
           font-size="660px"
           lengthAdjust="spacingAndGlyphs"
           text-anchor="end"
           opacity="0"
           id="text144">VCCB</text>
      </g>
      <path
         d="m 15720,10610 500,-170 -500,-170"
         id="path148" />
      <path
         d="m 16170,9820 30,20 20,80 v 40 l -20,70 -50,50 -50,30 -90,20 h -70 l -100,-20 -50,-30 -40,-50 -30,-70 v -40 l 30,-80 20,-20"
         id="path150" />
      <path
         d="m 16170,9320 30,20 20,80 v 40 l -20,70 -50,50 -50,30 -90,20 h -70 l -100,-20 -50,-30 -40,-50 -30,-70 v -40 l 30,-80 20,-20"
         id="path152" />
      <path
         d="m 15960,8940 20,-70 30,-30 40,-20 h 80 l 40,20 30,30 20,50 v 190 h -500 v -170 l 30,-50 20,-20 50,-30 h 40 l 50,30 30,20 20,50 v 170"
         id="path154" />
    </g>
    <g
       style="fill:#840000;fill-opacity:0;stroke:#840000;stroke-width:60;stroke-linecap:round;stroke-linejoin:round;stroke-opacity:1"
       id="g164">
      <g
         transform="rotate(-90,15900,8000)"
         id="g160">
        <text
           x="15900"
           y="8000"
           textLength="540"
           font-size="660px"
           lengthAdjust="spacingAndGlyphs"
           text-anchor="middle"
           opacity="0"
           id="text158">6</text>
      </g>
      <path
         d="m 15370,7900 v 100 l 30,40 20,30 70,40 100,30 h 190 l 40,-30 30,-20 20,-50 v -90 l -20,-50 -30,-20 -40,-30 h -120 l -50,30 -20,20 -30,50 v 90 l 30,50 20,20 50,30"
         id="path162" />
    </g>
    <g
       style="fill:#008484;fill-opacity:0;stroke:#008484;stroke-width:60;stroke-linecap:round;stroke-linejoin:round;stroke-opacity:1"
       id="g212">
      <text
         x="19030"
         y="8770"
         textLength="1060"
         font-size="660px"
         lengthAdjust="spacingAndGlyphs"
         text-anchor="middle"
         opacity="0"
         id="text166">U1</text>
      <path
         d="m 18640,8240 v 410 l 30,40 20,30 50,20 h 90 l 50,-20 30,-30 20,-40 v -410"
         id="path168" />
      <path
         d="m 19430,8740 h -290"
         id="path170" />
      <path
         d="m 19290,8740 v -500 l -50,70 -50,50 -50,20"
         id="path172" />
      <text
         x="21790"
         y="9770"
         textLength="6580"
         font-size="660px"
         lengthAdjust="spacingAndGlyphs"
         text-anchor="middle"
         opacity="0"
         id="text174">SN74LVC1T45DBV</text>
      <path
         d="m 18620,9720 70,20 h 120 l 50,-20 20,-30 20,-40 v -50 l -20,-50 -20,-20 -50,-30 -100,-20 -40,-20 -30,-30 -20,-50 v -40 l 20,-50 30,-20 40,-30 h 120 l 70,30"
         id="path176" />
      <path
         d="m 19120,9740 v -500 l 280,500 v -500"
         id="path178" />
      <path
         d="m 19590,9240 h 340 l -220,500"
         id="path180" />
      <path
         d="m 20330,9410 v 330"
         id="path182" />
      <path
         d="m 20210,9220 -120,350 h 310"
         id="path184" />
      <path
         d="m 20830,9740 h -240 v -500"
         id="path186" />
      <path
         d="m 20930,9240 160,500 170,-500"
         id="path188" />
      <path
         d="m 21710,9690 -20,30 -70,20 h -50 l -70,-20 -50,-50 -20,-50 -30,-90 v -70 l 30,-100 20,-50 50,-40 70,-30 h 50 l 70,30 20,20"
         id="path190" />
      <path
         d="m 22190,9740 h -290"
         id="path192" />
      <path
         d="m 22050,9740 v -500 l -50,70 -50,50 -50,20"
         id="path194" />
      <path
         d="m 22330,9240 h 290"
         id="path196" />
      <path
         d="M 22480,9740 V 9240"
         id="path198" />
      <path
         d="m 23000,9410 v 330"
         id="path200" />
      <path
         d="m 22880,9220 -120,350 h 310"
         id="path202" />
      <path
         d="m 23500,9240 h -240 l -20,240 20,-20 50,-30 h 120 l 50,30 20,20 20,50 v 120 l -20,40 -20,30 -50,20 h -120 l -50,-20 -20,-30"
         id="path204" />
      <path
         d="m 23740,9740 v -500 h 120 l 70,30 50,40 20,50 20,100 v 70 l -20,90 -20,50 -50,50 -70,20 h -120"
         id="path206" />
      <path
         d="m 24400,9480 80,20 20,30 20,40 v 80 l -20,40 -20,30 -50,20 h -190 v -500 h 160 l 50,30 30,20 20,50 v 40 l -20,50 -30,30 -50,20 h -160"
         id="path208" />
      <path
         d="m 24670,9240 160,500 170,-500"
         id="path210" />
    </g>
  </g>
  <g
     style="fill:#008484;fill-opacity:0;stroke:#008484;stroke-width:0;stroke-linecap:round;stroke-linejoin:round;stroke-opacity:1"
     id="g244"
     transform="translate(-5187.5701,-5480)">
    <g
       id="g216" />
    <g
       style="fill:#840000;fill-opacity:0;stroke:#840000;stroke-width:0;stroke-linecap:round;stroke-linejoin:round;stroke-opacity:1"
       id="g218" />
    <g
       style="fill:#840000;fill-opacity:0;stroke:#840000;stroke-width:60;stroke-linecap:round;stroke-linejoin:round;stroke-opacity:1"
       id="g226">
      <path
         style="fill:none;fill-opacity:0;stroke:#840000;stroke-width:60;stroke-linecap:round;stroke-linejoin:round;stroke-opacity:1"
         d="m 13700,7000 300,-500"
         id="path220" />
      <path
         style="fill:none;fill-opacity:0;stroke:#840000;stroke-width:60;stroke-linecap:round;stroke-linejoin:round;stroke-opacity:1"
         d="M 14000,7500 V 6500"
         id="path222" />
      <path
         style="fill:none;fill-opacity:0;stroke:#840000;stroke-width:60;stroke-linecap:round;stroke-linejoin:round;stroke-opacity:1"
         d="m 14000,6500 300,500"
         id="path224" />
    </g>
    <g
       style="fill:#008484;fill-opacity:0;stroke:#008484;stroke-width:60;stroke-linecap:round;stroke-linejoin:round;stroke-opacity:1"
       id="g242">
      <text
         x="14150"
         y="6040"
         textLength="2300"
         font-size="660px"
         lengthAdjust="spacingAndGlyphs"
         text-anchor="middle"
         opacity="0"
         id="text228">+3.3V</text>
      <path
         d="m 13150,5820 h 380"
         id="path230" />
      <path
         d="M 13340,6010 V 5630"
         id="path232" />
      <path
         d="m 13720,5510 h 310 l -170,190 h 70 l 50,30 20,20 30,50 v 120 l -30,40 -20,30 -50,20 h -140 l -50,-20 -20,-30"
         id="path234" />
      <path
         d="m 14240,5960 20,30 -20,20 -20,-20 20,-30 v 50"
         id="path236" />
      <path
         d="m 14430,5510 h 310 l -170,190 h 80 l 40,30 30,20 20,50 v 120 l -20,40 -30,30 -40,20 h -150 l -50,-20 -20,-30"
         id="path238" />
      <path
         d="m 14880,5510 170,500 170,-500"
         id="path240" />
    </g>
  </g>
  <g
     style="fill:#008484;fill-opacity:0;stroke:#008484;stroke-width:0;stroke-linecap:round;stroke-linejoin:round;stroke-opacity:1"
     id="g270"
     transform="translate(-5187.5701,-5480)">
    <g
       id="g246" />
    <g
       style="fill:#840000;fill-opacity:0;stroke:#840000;stroke-width:0;stroke-linecap:round;stroke-linejoin:round;stroke-opacity:1"
       id="g248" />
    <g
       style="fill:#840000;fill-opacity:0;stroke:#840000;stroke-width:60;stroke-linecap:round;stroke-linejoin:round;stroke-opacity:1"
       id="g256">
      <path
         style="fill:none;fill-opacity:0;stroke:#840000;stroke-width:60;stroke-linecap:round;stroke-linejoin:round;stroke-opacity:1"
         d="m 15700,7000 300,-500"
         id="path250" />
      <path
         style="fill:none;fill-opacity:0;stroke:#840000;stroke-width:60;stroke-linecap:round;stroke-linejoin:round;stroke-opacity:1"
         d="M 16000,7500 V 6500"
         id="path252" />
      <path
         style="fill:none;fill-opacity:0;stroke:#840000;stroke-width:60;stroke-linecap:round;stroke-linejoin:round;stroke-opacity:1"
         d="m 16000,6500 300,500"
         id="path254" />
    </g>
    <g
       style="fill:#008484;fill-opacity:0;stroke:#008484;stroke-width:60;stroke-linecap:round;stroke-linejoin:round;stroke-opacity:1"
       id="g268">
      <text
         x="16150"
         y="6040"
         textLength="1580"
         font-size="660px"
         lengthAdjust="spacingAndGlyphs"
         text-anchor="middle"
         opacity="0"
         id="text258">+5V</text>
      <path
         d="m 15500,5820 h 380"
         id="path260" />
      <path
         d="M 15690,6010 V 5630"
         id="path262" />
      <path
         d="m 16360,5510 h -240 l -20,240 20,-20 50,-30 h 120 l 50,30 20,20 20,50 v 120 l -20,40 -20,30 -50,20 h -120 l -50,-20 -20,-30"
         id="path264" />
      <path
         d="m 16530,5510 160,500 170,-500"
         id="path266" />
    </g>
  </g>
  <g
     style="fill:#008484;fill-opacity:0;stroke:#008484;stroke-width:0;stroke-linecap:round;stroke-linejoin:round;stroke-opacity:1"
     id="g290"
     transform="translate(-5187.5701,-5480)">
    <g
       id="g272" />
    <g
       style="fill:#840000;fill-opacity:0;stroke:#840000;stroke-width:0;stroke-linecap:round;stroke-linejoin:round;stroke-opacity:1"
       id="g274" />
    <g
       style="fill:#840000;fill-opacity:0;stroke:#840000;stroke-width:60;stroke-linecap:round;stroke-linejoin:round;stroke-opacity:1"
       id="g278">
      <path
         style="fill:none;fill-opacity:0;stroke:#840000;stroke-width:60;stroke-linecap:round;stroke-linejoin:round;stroke-opacity:1"
         d="m 15000,15500 v 500 h 500 l -500,500 -500,-500 h 500"
         id="path276" />
    </g>
    <g
       style="fill:#008484;fill-opacity:0;stroke:#008484;stroke-width:60;stroke-linecap:round;stroke-linejoin:round;stroke-opacity:1"
       id="g288">
      <text
         x="15050"
         y="17500"
         textLength="1580"
         font-size="660px"
         lengthAdjust="spacingAndGlyphs"
         text-anchor="middle"
         opacity="0"
         id="text280">GND</text>
      <path
         d="m 14660,17000 -40,-30 h -70 l -80,30 -40,40 -30,50 -20,100 v 70 l 20,90 30,50 40,50 80,20 h 40 l 70,-20 30,-30 v -160 h -100"
         id="path282" />
      <path
         d="m 14900,17470 v -500 l 290,500 v -500"
         id="path284" />
      <path
         d="m 15430,17470 v -500 h 120 l 70,30 40,40 30,50 20,100 v 70 l -20,90 -30,50 -40,50 -70,20 h -120"
         id="path286" />
    </g>
  </g>
  <g
     style="fill:#008484;fill-opacity:0;stroke:#008484;stroke-width:0;stroke-linecap:round;stroke-linejoin:round;stroke-opacity:1"
     id="g346"
     transform="translate(-5187.5701,-5480)">
    <g
       id="g292" />
    <g
       style="fill:#840000;fill-opacity:0;stroke:#840000;stroke-width:0;stroke-linecap:round;stroke-linejoin:round;stroke-opacity:1"
       id="g294" />
    <g
       style="fill:#840000;fill-opacity:0;stroke:#840000;stroke-width:100;stroke-linecap:round;stroke-linejoin:round;stroke-opacity:1"
       id="g298">
      <rect
         x="8500"
         y="13100"
         width="2000"
         height="800"
         rx="0"
         id="rect296" />
    </g>
    <g
       style="fill:#840000;fill-opacity:0;stroke:#840000;stroke-width:60;stroke-linecap:round;stroke-linejoin:round;stroke-opacity:1"
       id="g304">
      <path
         d="M 8500,13500 H 8000"
         id="path300" />
      <path
         d="m 10500,13500 h 500"
         id="path302" />
    </g>
    <g
       style="fill:#008484;fill-opacity:0;stroke:#008484;stroke-width:60;stroke-linecap:round;stroke-linejoin:round;stroke-opacity:1"
       id="g344">
      <text
         x="9500"
         y="14720"
         textLength="1040"
         font-size="660px"
         lengthAdjust="spacingAndGlyphs"
         text-anchor="middle"
         opacity="0"
         id="text306">R1</text>
      <path
         d="m 9410,14690 -160,-240"
         id="path308" />
      <path
         d="m 9130,14690 v -500 h 190 l 40,30 30,20 20,50 v 70 l -20,50 -30,20 -40,20 h -190"
         id="path310" />
      <path
         d="M 9890,14690 H 9600"
         id="path312" />
      <path
         d="m 9750,14690 v -500 l -50,70 -50,50 -50,20"
         id="path314" />
      <text
         x="9490"
         y="15720"
         textLength="4390"
         font-size="660px"
         lengthAdjust="spacingAndGlyphs"
         text-anchor="middle"
         opacity="0"
         id="text316">2.2k - 10k</text>
      <path
         d="m 7410,15240 30,-20 50,-30 h 110 l 50,30 30,20 20,50 v 40 l -20,80 -290,280 h 310"
         id="path318" />
      <path
         d="m 7910,15640 30,30 -30,20 -20,-20 20,-30 v 50"
         id="path320" />
      <path
         d="m 8130,15240 20,-20 50,-30 h 120 l 50,30 20,20 20,50 v 40 l -20,80 -290,280 h 310"
         id="path322" />
      <path
         d="m 8630,15690 v -500"
         id="path324" />
      <path
         d="m 8680,15500 140,190"
         id="path326" />
      <path
         d="m 8820,15360 -190,190"
         id="path328" />
      <path
         d="m 9410,15500 h 380"
         id="path330" />
      <path
         d="m 10680,15690 h -290"
         id="path332" />
      <path
         d="m 10530,15690 v -500 l -40,70 -50,50 -50,20"
         id="path334" />
      <path
         d="m 10990,15190 h 40 l 50,30 20,20 30,50 20,90 v 120 l -20,100 -30,40 -20,30 -50,20 h -40 l -50,-20 -30,-30 -20,-40 -20,-100 v -120 l 20,-90 20,-50 30,-20 50,-30"
         id="path336" />
      <path
         d="m 11370,15690 v -500"
         id="path338" />
      <path
         d="m 11410,15500 150,190"
         id="path340" />
      <path
         d="m 11560,15360 -190,190"
         id="path342" />
    </g>
  </g>
  <g
     style="fill:#008484;fill-opacity:0;stroke:#008484;stroke-width:0;stroke-linecap:round;stroke-linejoin:round;stroke-opacity:1"
     id="g372"
     transform="translate(-5187.5701,-5480)">
    <g
       id="g348" />
    <g
       style="fill:#840000;fill-opacity:0;stroke:#840000;stroke-width:0;stroke-linecap:round;stroke-linejoin:round;stroke-opacity:1"
       id="g350" />
    <g
       style="fill:#840000;fill-opacity:0;stroke:#840000;stroke-width:60;stroke-linecap:round;stroke-linejoin:round;stroke-opacity:1"
       id="g358">
      <path
         style="fill:none;fill-opacity:0;stroke:#840000;stroke-width:60;stroke-linecap:round;stroke-linejoin:round;stroke-opacity:1"
         d="m 7500,13800 -500,-300"
         id="path352" />
      <path
         style="fill:none;fill-opacity:0;stroke:#840000;stroke-width:60;stroke-linecap:round;stroke-linejoin:round;stroke-opacity:1"
         d="M 8000,13500 H 7000"
         id="path354" />
      <path
         style="fill:none;fill-opacity:0;stroke:#840000;stroke-width:60;stroke-linecap:round;stroke-linejoin:round;stroke-opacity:1"
         d="m 7000,13500 500,-300"
         id="path356" />
    </g>
    <g
       style="fill:#008484;fill-opacity:0;stroke:#008484;stroke-width:60;stroke-linecap:round;stroke-linejoin:round;stroke-opacity:1"
       id="g370">
      <text
         x="5930"
         y="13570"
         textLength="1580"
         font-size="660px"
         lengthAdjust="spacingAndGlyphs"
         text-anchor="middle"
         opacity="0"
         id="text360">+5V</text>
      <path
         d="m 5280,13350 h 380"
         id="path362" />
      <path
         d="m 5470,13540 v -380"
         id="path364" />
      <path
         d="m 6140,13040 h -240 l -20,240 20,-20 50,-30 h 120 l 50,30 20,20 20,50 v 120 l -20,40 -20,30 -50,20 h -120 l -50,-20 -20,-30"
         id="path366" />
      <path
         d="m 6310,13040 160,500 170,-500"
         id="path368" />
    </g>
  </g>
  <g
     style="fill:#008484;fill-opacity:0;stroke:#008484;stroke-width:60;stroke-linecap:round;stroke-linejoin:round;stroke-opacity:1"
     id="g374"
     transform="translate(-5187.5701,-5480)" />
  <g
     style="fill:#000000;fill-opacity:0;stroke:#000000;stroke-width:60;stroke-linecap:round;stroke-linejoin:round;stroke-opacity:1"
     id="g442"
     transform="translate(-5187.5701,-5480)">
    <text
       x="11000"
       y="11400"
       textLength="5440"
       font-size="660px"
       lengthAdjust="spacingAndGlyphs"
       text-anchor="end"
       opacity="0"
       id="text376">RGB_DATA_3V3</text>
    <path
       d="m 5990,11370 -170,-240"
       id="path378" />
    <path
       d="m 5700,11370 v -500 h 190 l 50,30 30,20 20,50 v 70 l -20,50 -30,20 -50,20 h -190"
       id="path380" />
    <path
       d="m 6470,10900 -50,-30 h -70 l -80,30 -40,40 -30,50 -20,100 v 70 l 20,90 30,50 40,50 80,20 h 40 l 80,-20 20,-30 v -160 h -100"
       id="path382" />
    <path
       d="m 6870,11110 70,20 30,30 20,40 v 80 l -20,40 -30,30 -50,20 h -190 v -500 h 170 l 50,30 20,20 30,50 v 40 l -30,50 -20,30 -50,20 h -170"
       id="path384" />
    <path
       d="m 7080,11420 h 390"
       id="path386" />
    <path
       d="m 7580,11370 v -500 h 120 l 70,30 50,40 30,50 20,100 v 70 l -20,90 -30,50 -50,50 -70,20 h -120"
       id="path388" />
    <path
       d="m 8060,11230 h 240"
       id="path390" />
    <path
       d="m 8010,11370 170,-500 170,500"
       id="path392" />
    <path
       d="m 8440,10870 h 290"
       id="path394" />
    <path
       d="m 8580,11370 v -500"
       id="path396" />
    <path
       d="m 8870,11230 h 240"
       id="path398" />
    <path
       d="m 8820,11370 170,-500 170,500"
       id="path400" />
    <path
       d="m 9200,11420 h 380"
       id="path402" />
    <path
       d="m 9660,10870 h 310 l -170,190 h 70 l 50,30 20,20 30,50 v 120 l -30,40 -20,30 -50,20 h -140 l -50,-20 -20,-30"
       id="path404" />
    <path
       d="m 10110,10870 160,500 170,-500"
       id="path406" />
    <path
       d="m 10560,10870 h 310 l -170,190 h 70 l 50,30 30,20 20,50 v 120 l -20,40 -30,30 -50,20 h -140 l -50,-20 -20,-30"
       id="path408" />
    <text
       x="19000"
       y="11400"
       textLength="4960"
       font-size="660px"
       lengthAdjust="spacingAndGlyphs"
       text-anchor="start"
       opacity="0"
       id="text410">RGB_DATA_5V</text>
    <path
       d="m 19430,11370 -170,-240"
       id="path412" />
    <path
       d="m 19140,11370 v -500 h 190 l 50,30 30,20 20,50 v 70 l -20,50 -30,20 -50,20 h -190"
       id="path414" />
    <path
       d="m 19910,10900 -50,-30 h -70 l -70,30 -50,40 -30,50 -20,100 v 70 l 20,90 30,50 50,50 70,20 h 40 l 80,-20 20,-30 v -160 h -100"
       id="path416" />
    <path
       d="m 20310,11110 70,20 30,30 20,40 v 80 l -20,40 -30,30 -50,20 h -190 v -500 h 170 l 50,30 20,20 30,50 v 40 l -30,50 -20,30 -50,20 h -170"
       id="path418" />
    <path
       d="m 20530,11420 h 380"
       id="path420" />
    <path
       d="m 21030,11370 v -500 h 110 l 80,30 40,40 30,50 20,100 v 70 l -20,90 -30,50 -40,50 -80,20 h -110"
       id="path422" />
    <path
       d="m 21500,11230 h 240"
       id="path424" />
    <path
       d="m 21450,11370 170,-500 170,500"
       id="path426" />
    <path
       d="m 21880,10870 h 290"
       id="path428" />
    <path
       d="m 22030,11370 v -500"
       id="path430" />
    <path
       d="m 22310,11230 h 240"
       id="path432" />
    <path
       d="m 22260,11370 170,-500 170,500"
       id="path434" />
    <path
       d="m 22640,11420 h 390"
       id="path436" />
    <path
       d="m 23380,10870 h -240 l -20,240 20,-20 50,-30 h 120 l 50,30 20,20 30,50 v 120 l -30,40 -20,30 -50,20 h -120 l -50,-20 -20,-30"
       id="path438" />
    <path
       d="m 23550,10870 170,500 160,-500"
       id="path440" />
  </g>
  <metadata
     id="metadata450">
    <rdf:RDF>
      <cc:Work
         rdf:about="">
        <dc:title>SVG Picture created as logic-level-shifting-using-sn74lvc1t45dbv.svg date 2021/12/22 23:54:20 </dc:title>
      </cc:Work>
    </rdf:RDF>
  </metadata>
</svg>
