<?xml version="1.0" encoding="UTF-8" standalone="no"?>
<svg
   version="1.1"
   width="5.4317183cm"
   height="2.889416cm"
   viewBox="0 0 21384.718 11375.654"
   id="svg366"
   sodipodi:docname="logic-level-shifting-3v3-to-5v-using-fet.svg"
   inkscape:version="1.1.1 (3bf5ae0d25, 2021-09-20)"
   xmlns:inkscape="http://www.inkscape.org/namespaces/inkscape"
   xmlns:sodipodi="http://sodipodi.sourceforge.net/DTD/sodipodi-0.dtd"
   xmlns="http://www.w3.org/2000/svg"
   xmlns:svg="http://www.w3.org/2000/svg"
   xmlns:rdf="http://www.w3.org/1999/02/22-rdf-syntax-ns#"
   xmlns:cc="http://creativecommons.org/ns#"
   xmlns:dc="http://purl.org/dc/elements/1.1/">
  <defs
     id="defs370" />
  <sodipodi:namedview
     id="namedview368"
     pagecolor="#ffffff"
     bordercolor="#666666"
     borderopacity="1.0"
     inkscape:pageshadow="2"
     inkscape:pageopacity="0.0"
     inkscape:pagecheckerboard="0"
     inkscape:document-units="cm"
     showgrid="false"
     fit-margin-top="0"
     fit-margin-left="0"
     fit-margin-right="0"
     fit-margin-bottom="0"
     inkscape:zoom="1.049478"
     inkscape:cx="493.10231"
     inkscape:cy="330.64058"
     inkscape:window-width="1920"
     inkscape:window-height="1011"
     inkscape:window-x="0"
     inkscape:window-y="32"
     inkscape:window-maximized="1"
     inkscape:current-layer="svg366" />
  <title
     id="title2">SVG Picture created as logic-level-shifting-3v3-to-5v-using-fet.svg date 2021/12/23 00:03:42 </title>
  <desc
     id="desc4">Picture generated by Eeschema-SVG </desc>
  <g
     style="fill:#000000;fill-opacity:1;stroke:#000000;stroke-linecap:round;stroke-linejoin:round;stroke-opacity:1"
     id="g6"
     transform="translate(-7099.4424,-6980)" />
  <g
     style="fill:#000000;fill-opacity:0;stroke:#000000;stroke-width:0;stroke-linecap:round;stroke-linejoin:round;stroke-opacity:1"
     id="g112"
     transform="translate(-7099.4424,-6980)">
    <g
       id="g8" />
    <g
       style="fill:#840000;fill-opacity:0;stroke:#840000;stroke-width:0;stroke-linecap:round;stroke-linejoin:round;stroke-opacity:1"
       id="g10" />
    <g
       style="fill:#840000;fill-opacity:0;stroke:#840000;stroke-width:100;stroke-linecap:round;stroke-linejoin:round;stroke-opacity:1"
       id="g14">
      <circle
         cx="18000"
         cy="15150"
         r="1100"
         id="circle12" />
    </g>
    <g
       style="fill:#840000;fill-opacity:1;stroke:#840000;stroke-width:60;stroke-linecap:round;stroke-linejoin:round;stroke-opacity:1"
       id="g20">
      <circle
         cx="17300"
         cy="15500"
         r="100"
         id="circle16" />
      <circle
         cx="18700"
         cy="15500"
         r="100"
         id="circle18" />
    </g>
    <g
       style="fill:#840000;fill-opacity:0;stroke:#840000;stroke-width:60;stroke-linecap:round;stroke-linejoin:round;stroke-opacity:1"
       id="g24">
      <path
         style="fill:none;fill-opacity:0;stroke:#840000;stroke-width:60;stroke-linecap:round;stroke-linejoin:round;stroke-opacity:1"
         d="M 18000,14600 V 13500"
         id="path22" />
    </g>
    <g
       style="fill:#840000;fill-opacity:0;stroke:#840000;stroke-width:100;stroke-linecap:round;stroke-linejoin:round;stroke-opacity:1"
       id="g34">
      <path
         style="fill:none;fill-opacity:0;stroke:#840000;stroke-width:100;stroke-linecap:round;stroke-linejoin:round;stroke-opacity:1"
         d="M 18750,14600 H 17250"
         id="path26" />
      <path
         style="fill:none;fill-opacity:0;stroke:#840000;stroke-width:100;stroke-linecap:round;stroke-linejoin:round;stroke-opacity:1"
         d="m 17500,14800 h -400"
         id="path28" />
      <path
         style="fill:none;fill-opacity:0;stroke:#840000;stroke-width:100;stroke-linecap:round;stroke-linejoin:round;stroke-opacity:1"
         d="m 18200,14800 h -400"
         id="path30" />
      <path
         style="fill:none;fill-opacity:0;stroke:#840000;stroke-width:100;stroke-linecap:round;stroke-linejoin:round;stroke-opacity:1"
         d="m 18900,14800 h -400"
         id="path32" />
    </g>
    <g
       style="fill:#840000;fill-opacity:0;stroke:#840000;stroke-width:60;stroke-linecap:round;stroke-linejoin:round;stroke-opacity:1"
       id="g42">
      <path
         style="fill:none;fill-opacity:0;stroke:#840000;stroke-width:60;stroke-linecap:round;stroke-linejoin:round;stroke-opacity:1"
         d="m 19000,15500 h -300"
         id="path36" />
      <path
         style="fill:none;fill-opacity:0;stroke:#840000;stroke-width:60;stroke-linecap:round;stroke-linejoin:round;stroke-opacity:1"
         d="m 17000,15500 h 1000 v -700"
         id="path38" />
      <path
         style="fill:none;fill-opacity:0;stroke:#840000;stroke-width:60;stroke-linecap:round;stroke-linejoin:round;stroke-opacity:1"
         d="m 17300,14800 v 1000 h 1400 v -1000"
         id="path40" />
    </g>
    <g
       style="fill:#840000;fill-opacity:1;stroke:#840000;stroke-width:60;stroke-linecap:round;stroke-linejoin:round;stroke-opacity:1"
       id="g46">
      <path
         style="fill:#840000;fill-opacity:1;fill-rule:evenodd;stroke:#840000;stroke-width:60;stroke-linecap:round;stroke-linejoin:round;stroke-opacity:1"
         d="m 18000,14900 150,400 h -300 z"
         id="path44" />
    </g>
    <g
       style="fill:#840000;fill-opacity:0;stroke:#840000;stroke-width:60;stroke-linecap:round;stroke-linejoin:round;stroke-opacity:1"
       id="g74">
      <path
         style="fill:none;fill-opacity:0;stroke:#840000;stroke-width:60;stroke-linecap:round;stroke-linejoin:round;stroke-opacity:1"
         d="m 18200,15600 -50,50 v 300 l -50,50"
         id="path48" />
      <path
         style="fill:none;fill-opacity:0;stroke:#840000;stroke-width:60;stroke-linecap:round;stroke-linejoin:round;stroke-opacity:1"
         d="m 18150,15800 -250,-150 v 300 z"
         id="path50" />
      <path
         d="M 17000,15500 H 16000"
         id="path52" />
      <text
         x="16500"
         y="16100"
         textLength="540"
         font-size="660px"
         lengthAdjust="spacingAndGlyphs"
         text-anchor="middle"
         opacity="0"
         id="text54">1</text>
      <path
         d="m 16640,16070 h -290"
         id="path56" />
      <path
         d="m 16500,16070 v -500 l -50,70 -50,50 -50,20"
         id="path58" />
      <path
         d="M 18000,14500 V 12500"
         id="path60" />
      <g
         transform="rotate(-90,18100,13500)"
         id="g64">
        <text
           x="18100"
           y="14000"
           textLength="540"
           font-size="660px"
           lengthAdjust="spacingAndGlyphs"
           text-anchor="middle"
           opacity="0"
           id="text62">2</text>
      </g>
      <path
         d="m 18120,13640 -20,-30 -30,-40 v -120 l 30,-50 20,-20 50,-30 h 40 l 80,30 280,280 v -310"
         id="path66" />
      <path
         d="m 19000,15500 h 1000"
         id="path68" />
      <text
         x="19500"
         y="16100"
         textLength="540"
         font-size="660px"
         lengthAdjust="spacingAndGlyphs"
         text-anchor="middle"
         opacity="0"
         id="text70">3</text>
      <path
         d="m 19330,15570 h 310 l -170,190 h 70 l 50,30 20,20 30,50 v 120 l -30,40 -20,30 -50,20 h -140 l -50,-20 -20,-30"
         id="path72" />
    </g>
    <g
       style="fill:#008484;fill-opacity:0;stroke:#008484;stroke-width:60;stroke-linecap:round;stroke-linejoin:round;stroke-opacity:1"
       id="g110">
      <text
         x="18000"
         y="17260"
         textLength="1060"
         font-size="660px"
         lengthAdjust="spacingAndGlyphs"
         text-anchor="middle"
         opacity="0"
         id="text76">Q1</text>
      <path
         d="m 17950,17280 -50,-20 -50,-50 -70,-70 -50,-30 h -40"
         id="path78" />
      <path
         d="m 17710,17230 -50,-20 -50,-50 -20,-100 v -160 l 20,-100 50,-40 50,-30 h 90 l 50,30 50,40 20,100 v 160 l -20,100 -50,50 -50,20 h -90"
         id="path80" />
      <path
         d="m 18400,17230 h -290"
         id="path82" />
      <path
         d="m 18260,17230 v -500 l -50,70 -50,50 -50,20"
         id="path84" />
      <text
         x="18000"
         y="18170"
         textLength="4920"
         font-size="660px"
         lengthAdjust="spacingAndGlyphs"
         text-anchor="middle"
         opacity="0"
         id="text86">Q_NMOS_SGD</text>
      <path
         d="m 16020,18190 -50,-20 -50,-50 -70,-70 -50,-30 h -40"
         id="path88" />
      <path
         d="m 15780,18140 -50,-20 -40,-50 -30,-100 v -160 l 30,-100 40,-40 50,-30 h 100 l 40,30 50,40 30,100 v 160 l -30,100 -50,50 -40,20 h -100"
         id="path90" />
      <path
         d="m 16090,18190 h 380"
         id="path92" />
      <path
         d="m 16590,18140 v -500 l 290,500 v -500"
         id="path94" />
      <path
         d="m 17110,18140 v -500 l 170,360 170,-360 v 500"
         id="path96" />
      <path
         d="m 17780,17640 h 100 l 40,30 50,40 30,100 v 160 l -30,100 -50,50 -40,20 h -100 l -50,-20 -40,-50 -30,-100 v -160 l 30,-100 40,-40 50,-30"
         id="path98" />
      <path
         d="m 18190,18120 70,20 h 120 l 40,-20 30,-30 20,-40 v -50 l -20,-50 -30,-20 -40,-30 -100,-20 -50,-20 -20,-30 -20,-50 v -40 l 20,-50 20,-20 50,-30 h 120 l 70,30"
         id="path100" />
      <path
         d="m 18570,18190 h 380"
         id="path102" />
      <path
         d="m 19040,18120 70,20 h 120 l 50,-20 20,-30 30,-40 v -50 l -30,-50 -20,-20 -50,-30 -90,-20 -50,-20 -20,-30 -30,-50 v -40 l 30,-50 20,-20 50,-30 h 120 l 70,30"
         id="path104" />
      <path
         d="m 19800,17670 -40,-30 h -70 l -80,30 -40,40 -30,50 -20,100 v 70 l 20,90 30,50 40,50 80,20 h 40 l 70,-20 30,-30 v -160 h -100"
         id="path106" />
      <path
         d="m 20040,18140 v -500 h 120 l 70,30 50,40 20,50 30,100 v 70 l -30,90 -20,50 -50,50 -70,20 h -120"
         id="path108" />
    </g>
  </g>
  <g
     style="fill:#008484;fill-opacity:0;stroke:#008484;stroke-width:0;stroke-linecap:round;stroke-linejoin:round;stroke-opacity:1"
     id="g152"
     transform="translate(-7099.4424,-6980)">
    <g
       id="g114" />
    <g
       style="fill:#840000;fill-opacity:0;stroke:#840000;stroke-width:0;stroke-linecap:round;stroke-linejoin:round;stroke-opacity:1"
       id="g116" />
    <g
       style="fill:#840000;fill-opacity:0;stroke:#840000;stroke-width:100;stroke-linecap:round;stroke-linejoin:round;stroke-opacity:1"
       id="g120">
      <rect
         x="21100"
         y="11500"
         width="800"
         height="2000"
         rx="0"
         id="rect118" />
    </g>
    <g
       style="fill:#840000;fill-opacity:0;stroke:#840000;stroke-width:60;stroke-linecap:round;stroke-linejoin:round;stroke-opacity:1"
       id="g126">
      <path
         d="m 21500,11500 v -500"
         id="path122" />
      <path
         d="m 21500,13500 v 500"
         id="path124" />
    </g>
    <g
       style="fill:#008484;fill-opacity:0;stroke:#008484;stroke-width:60;stroke-linecap:round;stroke-linejoin:round;stroke-opacity:1"
       id="g150">
      <text
         x="22720"
         y="12310"
         textLength="1040"
         font-size="660px"
         lengthAdjust="spacingAndGlyphs"
         text-anchor="middle"
         opacity="0"
         id="text128">R2</text>
      <path
         d="m 22630,12280 -160,-240"
         id="path130" />
      <path
         d="m 22350,12280 v -500 h 190 l 40,30 30,20 20,50 v 70 l -20,50 -30,20 -40,20 h -190"
         id="path132" />
      <path
         d="m 22820,11830 30,-20 40,-30 h 120 l 50,30 20,20 30,50 v 40 l -30,80 -280,280 h 310"
         id="path134" />
      <text
         x="22910"
         y="13220"
         textLength="1420"
         font-size="660px"
         lengthAdjust="spacingAndGlyphs"
         text-anchor="middle"
         opacity="0"
         id="text136">10k</text>
      <path
         d="m 22610,13190 h -290"
         id="path138" />
      <path
         d="m 22460,13190 v -500 l -40,70 -50,50 -50,20"
         id="path140" />
      <path
         d="m 22920,12690 h 40 l 50,30 30,20 20,50 20,90 v 120 l -20,100 -20,40 -30,30 -50,20 h -40 l -50,-20 -20,-30 -30,-40 -20,-100 v -120 l 20,-90 30,-50 20,-20 50,-30"
         id="path142" />
      <path
         d="m 23300,13190 v -500"
         id="path144" />
      <path
         d="m 23350,13000 140,190"
         id="path146" />
      <path
         d="m 23490,12860 -190,190"
         id="path148" />
    </g>
  </g>
  <g
     style="fill:#008484;fill-opacity:0;stroke:#008484;stroke-width:0;stroke-linecap:round;stroke-linejoin:round;stroke-opacity:1"
     id="g182"
     transform="translate(-7099.4424,-6980)">
    <g
       id="g154" />
    <g
       style="fill:#840000;fill-opacity:0;stroke:#840000;stroke-width:0;stroke-linecap:round;stroke-linejoin:round;stroke-opacity:1"
       id="g156" />
    <g
       style="fill:#840000;fill-opacity:0;stroke:#840000;stroke-width:60;stroke-linecap:round;stroke-linejoin:round;stroke-opacity:1"
       id="g164">
      <path
         style="fill:none;fill-opacity:0;stroke:#840000;stroke-width:60;stroke-linecap:round;stroke-linejoin:round;stroke-opacity:1"
         d="m 14200,8500 300,-500"
         id="path158" />
      <path
         style="fill:none;fill-opacity:0;stroke:#840000;stroke-width:60;stroke-linecap:round;stroke-linejoin:round;stroke-opacity:1"
         d="M 14500,9000 V 8000"
         id="path160" />
      <path
         style="fill:none;fill-opacity:0;stroke:#840000;stroke-width:60;stroke-linecap:round;stroke-linejoin:round;stroke-opacity:1"
         d="m 14500,8000 300,500"
         id="path162" />
    </g>
    <g
       style="fill:#008484;fill-opacity:0;stroke:#008484;stroke-width:60;stroke-linecap:round;stroke-linejoin:round;stroke-opacity:1"
       id="g180">
      <text
         x="14650"
         y="7540"
         textLength="2300"
         font-size="660px"
         lengthAdjust="spacingAndGlyphs"
         text-anchor="middle"
         opacity="0"
         id="text166">+3.3V</text>
      <path
         d="m 13650,7320 h 380"
         id="path168" />
      <path
         d="M 13840,7510 V 7130"
         id="path170" />
      <path
         d="m 14220,7010 h 310 l -170,190 h 70 l 50,30 20,20 30,50 v 120 l -30,40 -20,30 -50,20 h -140 l -50,-20 -20,-30"
         id="path172" />
      <path
         d="m 14740,7460 20,30 -20,20 -20,-20 20,-30 v 50"
         id="path174" />
      <path
         d="m 14930,7010 h 310 l -170,190 h 80 l 40,30 30,20 20,50 v 120 l -20,40 -30,30 -40,20 h -150 l -50,-20 -20,-30"
         id="path176" />
      <path
         d="m 15380,7010 170,500 170,-500"
         id="path178" />
    </g>
  </g>
  <g
     style="fill:#008484;fill-opacity:0;stroke:#008484;stroke-width:0;stroke-linecap:round;stroke-linejoin:round;stroke-opacity:1"
     id="g208"
     transform="translate(-7099.4424,-6980)">
    <g
       id="g184" />
    <g
       style="fill:#840000;fill-opacity:0;stroke:#840000;stroke-width:0;stroke-linecap:round;stroke-linejoin:round;stroke-opacity:1"
       id="g186" />
    <g
       style="fill:#840000;fill-opacity:0;stroke:#840000;stroke-width:60;stroke-linecap:round;stroke-linejoin:round;stroke-opacity:1"
       id="g194">
      <path
         style="fill:none;fill-opacity:0;stroke:#840000;stroke-width:60;stroke-linecap:round;stroke-linejoin:round;stroke-opacity:1"
         d="m 21200,8500 300,-500"
         id="path188" />
      <path
         style="fill:none;fill-opacity:0;stroke:#840000;stroke-width:60;stroke-linecap:round;stroke-linejoin:round;stroke-opacity:1"
         d="M 21500,9000 V 8000"
         id="path190" />
      <path
         style="fill:none;fill-opacity:0;stroke:#840000;stroke-width:60;stroke-linecap:round;stroke-linejoin:round;stroke-opacity:1"
         d="m 21500,8000 300,500"
         id="path192" />
    </g>
    <g
       style="fill:#008484;fill-opacity:0;stroke:#008484;stroke-width:60;stroke-linecap:round;stroke-linejoin:round;stroke-opacity:1"
       id="g206">
      <text
         x="21650"
         y="7540"
         textLength="1580"
         font-size="660px"
         lengthAdjust="spacingAndGlyphs"
         text-anchor="middle"
         opacity="0"
         id="text196">+5V</text>
      <path
         d="m 21000,7320 h 380"
         id="path198" />
      <path
         d="M 21190,7510 V 7130"
         id="path200" />
      <path
         d="m 21860,7010 h -240 l -20,240 20,-20 50,-30 h 120 l 50,30 20,20 20,50 v 120 l -20,40 -20,30 -50,20 h -120 l -50,-20 -20,-30"
         id="path202" />
      <path
         d="m 22030,7010 160,500 170,-500"
         id="path204" />
    </g>
  </g>
  <g
     style="fill:#008484;fill-opacity:0;stroke:#008484;stroke-width:0;stroke-linecap:round;stroke-linejoin:round;stroke-opacity:1"
     id="g250"
     transform="translate(-7099.4424,-6980)">
    <g
       id="g210" />
    <g
       style="fill:#840000;fill-opacity:0;stroke:#840000;stroke-width:0;stroke-linecap:round;stroke-linejoin:round;stroke-opacity:1"
       id="g212" />
    <g
       style="fill:#840000;fill-opacity:0;stroke:#840000;stroke-width:100;stroke-linecap:round;stroke-linejoin:round;stroke-opacity:1"
       id="g216">
      <rect
         x="14100"
         y="11500"
         width="800"
         height="2000"
         rx="0"
         id="rect214" />
    </g>
    <g
       style="fill:#840000;fill-opacity:0;stroke:#840000;stroke-width:60;stroke-linecap:round;stroke-linejoin:round;stroke-opacity:1"
       id="g222">
      <path
         d="m 14500,11500 v -500"
         id="path218" />
      <path
         d="m 14500,13500 v 500"
         id="path220" />
    </g>
    <g
       style="fill:#008484;fill-opacity:0;stroke:#008484;stroke-width:60;stroke-linecap:round;stroke-linejoin:round;stroke-opacity:1"
       id="g248">
      <text
         x="15720"
         y="12310"
         textLength="1040"
         font-size="660px"
         lengthAdjust="spacingAndGlyphs"
         text-anchor="middle"
         opacity="0"
         id="text224">R1</text>
      <path
         d="m 15630,12280 -160,-240"
         id="path226" />
      <path
         d="m 15350,12280 v -500 h 190 l 40,30 30,20 20,50 v 70 l -20,50 -30,20 -40,20 h -190"
         id="path228" />
      <path
         d="m 16110,12280 h -290"
         id="path230" />
      <path
         d="m 15970,12280 v -500 l -50,70 -50,50 -50,20"
         id="path232" />
      <text
         x="15910"
         y="13220"
         textLength="1420"
         font-size="660px"
         lengthAdjust="spacingAndGlyphs"
         text-anchor="middle"
         opacity="0"
         id="text234">10k</text>
      <path
         d="m 15610,13190 h -290"
         id="path236" />
      <path
         d="m 15460,13190 v -500 l -40,70 -50,50 -50,20"
         id="path238" />
      <path
         d="m 15920,12690 h 40 l 50,30 30,20 20,50 20,90 v 120 l -20,100 -20,40 -30,30 -50,20 h -40 l -50,-20 -20,-30 -30,-40 -20,-100 v -120 l 20,-90 30,-50 20,-20 50,-30"
         id="path240" />
      <path
         d="m 16300,13190 v -500"
         id="path242" />
      <path
         d="m 16350,13000 140,190"
         id="path244" />
      <path
         d="m 16490,12860 -190,190"
         id="path246" />
    </g>
  </g>
  <g
     style="fill:#008484;fill-opacity:0;stroke:#008484;stroke-width:60;stroke-linecap:round;stroke-linejoin:round;stroke-opacity:1"
     id="g252"
     transform="translate(-7099.4424,-6980)" />
  <g
     style="fill:#008400;fill-opacity:0;stroke:#008400;stroke-width:60;stroke-linecap:round;stroke-linejoin:round;stroke-opacity:1"
     id="g276"
     transform="translate(-7099.4424,-6980)">
    <path
       d="M 21500,15500 V 14000"
       id="path254" />
    <path
       d="m 20000,15500 h 1500"
       id="path256" />
    <path
       d="M 14500,15500 H 12500"
       id="path258" />
    <path
       d="m 21500,15500 h 2000"
       id="path260" />
    <path
       d="m 14500,14000 v 1500"
       id="path262" />
    <path
       d="M 16000,15500 H 14500"
       id="path264" />
    <path
       d="m 21500,9000 v 2000"
       id="path266" />
    <path
       d="m 14500,10000 v 1000"
       id="path268" />
    <path
       d="m 18000,10000 v 2500"
       id="path270" />
    <path
       d="m 14500,10000 h 3500"
       id="path272" />
    <path
       d="m 14500,9000 v 1000"
       id="path274" />
  </g>
  <g
     style="fill:#000000;fill-opacity:0;stroke:#000000;stroke-width:60;stroke-linecap:round;stroke-linejoin:round;stroke-opacity:1"
     id="g344"
     transform="translate(-7099.4424,-6980)">
    <text
       x="23500"
       y="15400"
       textLength="4960"
       font-size="660px"
       lengthAdjust="spacingAndGlyphs"
       text-anchor="start"
       opacity="0"
       id="text278">RGB_DATA_5V</text>
    <path
       d="m 23930,15370 -170,-240"
       id="path280" />
    <path
       d="m 23640,15370 v -500 h 190 l 50,30 30,20 20,50 v 70 l -20,50 -30,20 -50,20 h -190"
       id="path282" />
    <path
       d="m 24410,14900 -50,-30 h -70 l -70,30 -50,40 -30,50 -20,100 v 70 l 20,90 30,50 50,50 70,20 h 40 l 80,-20 20,-30 v -160 h -100"
       id="path284" />
    <path
       d="m 24810,15110 70,20 30,30 20,40 v 80 l -20,40 -30,30 -50,20 h -190 v -500 h 170 l 50,30 20,20 30,50 v 40 l -30,50 -20,30 -50,20 h -170"
       id="path286" />
    <path
       d="m 25030,15420 h 380"
       id="path288" />
    <path
       d="m 25530,15370 v -500 h 110 l 80,30 40,40 30,50 20,100 v 70 l -20,90 -30,50 -40,50 -80,20 h -110"
       id="path290" />
    <path
       d="m 26000,15230 h 240"
       id="path292" />
    <path
       d="m 25950,15370 170,-500 170,500"
       id="path294" />
    <path
       d="m 26380,14870 h 290"
       id="path296" />
    <path
       d="m 26530,15370 v -500"
       id="path298" />
    <path
       d="m 26810,15230 h 240"
       id="path300" />
    <path
       d="m 26760,15370 170,-500 170,500"
       id="path302" />
    <path
       d="m 27140,15420 h 390"
       id="path304" />
    <path
       d="m 27880,14870 h -240 l -20,240 20,-20 50,-30 h 120 l 50,30 20,20 30,50 v 120 l -30,40 -20,30 -50,20 h -120 l -50,-20 -20,-30"
       id="path306" />
    <path
       d="m 28050,14870 170,500 160,-500"
       id="path308" />
    <text
       x="12500"
       y="15400"
       textLength="5440"
       font-size="660px"
       lengthAdjust="spacingAndGlyphs"
       text-anchor="end"
       opacity="0"
       id="text310">RGB_DATA_3V3</text>
    <path
       d="m 7490,15370 -170,-240"
       id="path312" />
    <path
       d="m 7200,15370 v -500 h 190 l 50,30 30,20 20,50 v 70 l -20,50 -30,20 -50,20 h -190"
       id="path314" />
    <path
       d="m 7970,14900 -50,-30 h -70 l -80,30 -40,40 -30,50 -20,100 v 70 l 20,90 30,50 40,50 80,20 h 40 l 80,-20 20,-30 v -160 h -100"
       id="path316" />
    <path
       d="m 8370,15110 70,20 30,30 20,40 v 80 l -20,40 -30,30 -50,20 h -190 v -500 h 170 l 50,30 20,20 30,50 v 40 l -30,50 -20,30 -50,20 h -170"
       id="path318" />
    <path
       d="m 8580,15420 h 390"
       id="path320" />
    <path
       d="m 9080,15370 v -500 h 120 l 70,30 50,40 30,50 20,100 v 70 l -20,90 -30,50 -50,50 -70,20 h -120"
       id="path322" />
    <path
       d="m 9560,15230 h 240"
       id="path324" />
    <path
       d="m 9510,15370 170,-500 170,500"
       id="path326" />
    <path
       d="m 9940,14870 h 290"
       id="path328" />
    <path
       d="m 10080,15370 v -500"
       id="path330" />
    <path
       d="m 10370,15230 h 240"
       id="path332" />
    <path
       d="m 10320,15370 170,-500 170,500"
       id="path334" />
    <path
       d="m 10700,15420 h 380"
       id="path336" />
    <path
       d="m 11160,14870 h 310 l -170,190 h 70 l 50,30 20,20 30,50 v 120 l -30,40 -20,30 -50,20 h -140 l -50,-20 -20,-30"
       id="path338" />
    <path
       d="m 11610,14870 160,500 170,-500"
       id="path340" />
    <path
       d="m 12060,14870 h 310 l -170,190 h 70 l 50,30 30,20 20,50 v 120 l -20,40 -30,30 -50,20 h -140 l -50,-20 -20,-30"
       id="path342" />
  </g>
  <g
     style="fill:#000000;fill-opacity:0;stroke:#000000;stroke-width:0;stroke-linecap:round;stroke-linejoin:round;stroke-opacity:1"
     id="g346"
     transform="translate(-7099.4424,-6980)" />
  <g
     style="fill:#008400;fill-opacity:0;stroke:#008400;stroke-width:0;stroke-linecap:round;stroke-linejoin:round;stroke-opacity:1"
     id="g348"
     transform="translate(-7099.4424,-6980)" />
  <g
     style="fill:#008400;fill-opacity:1;stroke:#008400;stroke-width:100;stroke-linecap:round;stroke-linejoin:round;stroke-opacity:1"
     id="g352"
     transform="translate(-7099.4424,-6980)">
    <circle
       cx="21500"
       cy="15500"
       r="200"
       id="circle350" />
  </g>
  <g
     style="fill:#008400;fill-opacity:1;stroke:#008400;stroke-width:0;stroke-linecap:round;stroke-linejoin:round;stroke-opacity:1"
     id="g354"
     transform="translate(-7099.4424,-6980)" />
  <g
     style="fill:#008400;fill-opacity:1;stroke:#008400;stroke-width:100;stroke-linecap:round;stroke-linejoin:round;stroke-opacity:1"
     id="g358"
     transform="translate(-7099.4424,-6980)">
    <circle
       cx="14500"
       cy="15500"
       r="200"
       id="circle356" />
  </g>
  <g
     style="fill:#008400;fill-opacity:1;stroke:#008400;stroke-width:0;stroke-linecap:round;stroke-linejoin:round;stroke-opacity:1"
     id="g360"
     transform="translate(-7099.4424,-6980)" />
  <g
     style="fill:#008400;fill-opacity:1;stroke:#008400;stroke-width:100;stroke-linecap:round;stroke-linejoin:round;stroke-opacity:1"
     id="g364"
     transform="translate(-7099.4424,-6980)">
    <circle
       cx="14500"
       cy="10000"
       r="200"
       id="circle362" />
  </g>
  <metadata
     id="metadata372">
    <rdf:RDF>
      <cc:Work
         rdf:about="">
        <dc:title>SVG Picture created as logic-level-shifting-3v3-to-5v-using-fet.svg date 2021/12/23 00:03:42 </dc:title>
      </cc:Work>
    </rdf:RDF>
  </metadata>
</svg>
